<mxfile host="drawio-plugin" modified="2023-11-25T06:40:30.200Z" agent="5.0 (Macintosh; Intel Mac OS X 10_15_7) AppleWebKit/537.36 (KHTML, like Gecko) Chrome/111.0.0.0 Safari/537.36" etag="zOX9Q63291iWrw65vZvO" version="20.5.3" type="embed"><diagram id="23iRSUPoRavnBvh4doch" name="Page-1"><mxGraphModel dx="722" dy="647" grid="0" gridSize="10" guides="1" tooltips="1" connect="1" arrows="1" fold="1" page="1" pageScale="1" pageWidth="827" pageHeight="1169" math="0" shadow="0"><root><mxCell id="0"/><mxCell id="1" parent="0"/><mxCell id="3" value="User" style="swimlane;fontStyle=0;childLayout=stackLayout;horizontal=1;startSize=26;fillColor=none;horizontalStack=0;resizeParent=1;resizeParentMax=0;resizeLast=0;collapsible=1;marginBottom=0;" parent="1" vertex="1"><mxGeometry x="487" y="36" width="140" height="104" as="geometry"/></mxCell><mxCell id="4" value="id: int" style="text;strokeColor=none;fillColor=none;align=left;verticalAlign=top;spacingLeft=4;spacingRight=4;overflow=hidden;rotatable=0;points=[[0,0.5],[1,0.5]];portConstraint=eastwest;" parent="3" vertex="1"><mxGeometry y="26" width="140" height="26" as="geometry"/></mxCell><mxCell id="5" value="login: str" style="text;strokeColor=none;fillColor=none;align=left;verticalAlign=top;spacingLeft=4;spacingRight=4;overflow=hidden;rotatable=0;points=[[0,0.5],[1,0.5]];portConstraint=eastwest;" parent="3" vertex="1"><mxGeometry y="52" width="140" height="26" as="geometry"/></mxCell><mxCell id="6" value="password: str" style="text;strokeColor=none;fillColor=none;align=left;verticalAlign=top;spacingLeft=4;spacingRight=4;overflow=hidden;rotatable=0;points=[[0,0.5],[1,0.5]];portConstraint=eastwest;" parent="3" vertex="1"><mxGeometry y="78" width="140" height="26" as="geometry"/></mxCell><mxCell id="7" value="ShoppingCart" style="swimlane;fontStyle=0;childLayout=stackLayout;horizontal=1;startSize=26;fillColor=none;horizontalStack=0;resizeParent=1;resizeParentMax=0;resizeLast=0;collapsible=1;marginBottom=0;" parent="1" vertex="1"><mxGeometry x="487" y="206" width="140" height="104" as="geometry"/></mxCell><mxCell id="8" value="id: int" style="text;strokeColor=none;fillColor=none;align=left;verticalAlign=top;spacingLeft=4;spacingRight=4;overflow=hidden;rotatable=0;points=[[0,0.5],[1,0.5]];portConstraint=eastwest;" parent="7" vertex="1"><mxGeometry y="26" width="140" height="26" as="geometry"/></mxCell><mxCell id="9" value="products: List[Product]" style="text;strokeColor=none;fillColor=none;align=left;verticalAlign=top;spacingLeft=4;spacingRight=4;overflow=hidden;rotatable=0;points=[[0,0.5],[1,0.5]];portConstraint=eastwest;" parent="7" vertex="1"><mxGeometry y="52" width="140" height="26" as="geometry"/></mxCell><mxCell id="10" value="owner: User" style="text;strokeColor=none;fillColor=none;align=left;verticalAlign=top;spacingLeft=4;spacingRight=4;overflow=hidden;rotatable=0;points=[[0,0.5],[1,0.5]];portConstraint=eastwest;" parent="7" vertex="1"><mxGeometry y="78" width="140" height="26" as="geometry"/></mxCell><mxCell id="11" value="Relation" style="endArrow=open;html=1;endSize=12;startArrow=open;startSize=14;startFill=0;edgeStyle=orthogonalEdgeStyle;rounded=0;entryX=0.51;entryY=1.077;entryDx=0;entryDy=0;entryPerimeter=0;exitX=0.5;exitY=0;exitDx=0;exitDy=0;" parent="1" source="7" target="6" edge="1"><mxGeometry relative="1" as="geometry"><mxPoint x="357" y="176" as="sourcePoint"/><mxPoint x="561" y="166" as="targetPoint"/><Array as="points"><mxPoint x="557" y="166"/><mxPoint x="558" y="166"/></Array></mxGeometry></mxCell><mxCell id="12" value="1" style="edgeLabel;resizable=0;html=1;align=left;verticalAlign=top;" parent="11" connectable="0" vertex="1"><mxGeometry x="-1" relative="1" as="geometry"><mxPoint x="10" y="-20" as="offset"/></mxGeometry></mxCell><mxCell id="13" value="1" style="edgeLabel;resizable=0;html=1;align=right;verticalAlign=top;" parent="11" connectable="0" vertex="1"><mxGeometry x="1" relative="1" as="geometry"><mxPoint x="-11" as="offset"/></mxGeometry></mxCell><mxCell id="14" value="&lt;h1&gt;One-To-One&lt;/h1&gt;&lt;p&gt;- User &amp;lt; ----------- &amp;gt; ShoppingCart&lt;/p&gt;&lt;p&gt;- one User is associated with 1 and only one ShoppingCart&lt;/p&gt;" style="text;html=1;strokeColor=none;fillColor=none;spacing=5;spacingTop=-20;whiteSpace=wrap;overflow=hidden;rounded=0;" parent="1" vertex="1"><mxGeometry x="70" y="100" width="370" height="120" as="geometry"/></mxCell><mxCell id="15" value="User" style="swimlane;fontStyle=0;childLayout=stackLayout;horizontal=1;startSize=26;fillColor=none;horizontalStack=0;resizeParent=1;resizeParentMax=0;resizeLast=0;collapsible=1;marginBottom=0;" parent="1" vertex="1"><mxGeometry x="577" y="1228" width="140" height="104" as="geometry"/></mxCell><mxCell id="16" value="id: int" style="text;strokeColor=none;fillColor=none;align=left;verticalAlign=top;spacingLeft=4;spacingRight=4;overflow=hidden;rotatable=0;points=[[0,0.5],[1,0.5]];portConstraint=eastwest;" parent="15" vertex="1"><mxGeometry y="26" width="140" height="26" as="geometry"/></mxCell><mxCell id="17" value="login: str" style="text;strokeColor=none;fillColor=none;align=left;verticalAlign=top;spacingLeft=4;spacingRight=4;overflow=hidden;rotatable=0;points=[[0,0.5],[1,0.5]];portConstraint=eastwest;" parent="15" vertex="1"><mxGeometry y="52" width="140" height="26" as="geometry"/></mxCell><mxCell id="18" value="password: str" style="text;strokeColor=none;fillColor=none;align=left;verticalAlign=top;spacingLeft=4;spacingRight=4;overflow=hidden;rotatable=0;points=[[0,0.5],[1,0.5]];portConstraint=eastwest;" parent="15" vertex="1"><mxGeometry y="78" width="140" height="26" as="geometry"/></mxCell><mxCell id="19" value="Order" style="swimlane;fontStyle=0;childLayout=stackLayout;horizontal=1;startSize=26;fillColor=none;horizontalStack=0;resizeParent=1;resizeParentMax=0;resizeLast=0;collapsible=1;marginBottom=0;" parent="1" vertex="1"><mxGeometry x="577" y="1398" width="140" height="130" as="geometry"/></mxCell><mxCell id="20" value="id: int" style="text;strokeColor=none;fillColor=none;align=left;verticalAlign=top;spacingLeft=4;spacingRight=4;overflow=hidden;rotatable=0;points=[[0,0.5],[1,0.5]];portConstraint=eastwest;" parent="19" vertex="1"><mxGeometry y="26" width="140" height="26" as="geometry"/></mxCell><mxCell id="21" value="products: List[Product]" style="text;strokeColor=none;fillColor=none;align=left;verticalAlign=top;spacingLeft=4;spacingRight=4;overflow=hidden;rotatable=0;points=[[0,0.5],[1,0.5]];portConstraint=eastwest;" parent="19" vertex="1"><mxGeometry y="52" width="140" height="26" as="geometry"/></mxCell><mxCell id="22" value="owner: User" style="text;strokeColor=none;fillColor=none;align=left;verticalAlign=top;spacingLeft=4;spacingRight=4;overflow=hidden;rotatable=0;points=[[0,0.5],[1,0.5]];portConstraint=eastwest;" parent="19" vertex="1"><mxGeometry y="78" width="140" height="26" as="geometry"/></mxCell><mxCell id="27" value="order_date: datetime" style="text;strokeColor=none;fillColor=none;align=left;verticalAlign=top;spacingLeft=4;spacingRight=4;overflow=hidden;rotatable=0;points=[[0,0.5],[1,0.5]];portConstraint=eastwest;" parent="19" vertex="1"><mxGeometry y="104" width="140" height="26" as="geometry"/></mxCell><mxCell id="23" value="Relation" style="endArrow=diamondThin;html=1;endSize=12;startArrow=none;startSize=14;startFill=0;edgeStyle=orthogonalEdgeStyle;rounded=0;entryX=0.51;entryY=1.077;entryDx=0;entryDy=0;entryPerimeter=0;exitX=0.5;exitY=0;exitDx=0;exitDy=0;endFill=0;" parent="1" source="19" target="18" edge="1"><mxGeometry relative="1" as="geometry"><mxPoint x="447" y="1368" as="sourcePoint"/><mxPoint x="651" y="1358" as="targetPoint"/><Array as="points"><mxPoint x="647" y="1358"/><mxPoint x="648" y="1358"/></Array></mxGeometry></mxCell><mxCell id="24" value="0..n" style="edgeLabel;resizable=0;html=1;align=left;verticalAlign=top;" parent="23" connectable="0" vertex="1"><mxGeometry x="-1" relative="1" as="geometry"><mxPoint x="10" y="-20" as="offset"/></mxGeometry></mxCell><mxCell id="25" value="1" style="edgeLabel;resizable=0;html=1;align=right;verticalAlign=top;" parent="23" connectable="0" vertex="1"><mxGeometry x="1" relative="1" as="geometry"><mxPoint x="-11" as="offset"/></mxGeometry></mxCell><mxCell id="26" value="&lt;h1&gt;Many-To-One&lt;/h1&gt;&lt;p&gt;- Order &amp;lt; ----------- &amp;gt; User&lt;/p&gt;&lt;p&gt;- One User can have many orders, but one Order can be owned by one User&lt;/p&gt;" style="text;html=1;strokeColor=none;fillColor=none;spacing=5;spacingTop=-20;whiteSpace=wrap;overflow=hidden;rounded=0;" parent="1" vertex="1"><mxGeometry x="67" y="1257" width="370" height="120" as="geometry"/></mxCell><mxCell id="28" value="&lt;h1&gt;Many-To-Many&lt;/h1&gt;&lt;p&gt;- Order &amp;lt; --------- &amp;gt; Product&lt;/p&gt;&lt;p&gt;- one Order can have many products&lt;/p&gt;&lt;p&gt;- same Product can be located in several Orders&lt;/p&gt;" style="text;html=1;strokeColor=none;fillColor=none;spacing=5;spacingTop=-20;whiteSpace=wrap;overflow=hidden;rounded=0;" parent="1" vertex="1"><mxGeometry x="54" y="2358" width="400" height="120" as="geometry"/></mxCell><mxCell id="29" value="Order" style="swimlane;fontStyle=0;childLayout=stackLayout;horizontal=1;startSize=26;fillColor=none;horizontalStack=0;resizeParent=1;resizeParentMax=0;resizeLast=0;collapsible=1;marginBottom=0;" parent="1" vertex="1"><mxGeometry x="474" y="2358" width="140" height="130" as="geometry"/></mxCell><mxCell id="30" value="id: int" style="text;strokeColor=none;fillColor=none;align=left;verticalAlign=top;spacingLeft=4;spacingRight=4;overflow=hidden;rotatable=0;points=[[0,0.5],[1,0.5]];portConstraint=eastwest;" parent="29" vertex="1"><mxGeometry y="26" width="140" height="26" as="geometry"/></mxCell><mxCell id="31" value="products: List[Product]" style="text;strokeColor=none;fillColor=none;align=left;verticalAlign=top;spacingLeft=4;spacingRight=4;overflow=hidden;rotatable=0;points=[[0,0.5],[1,0.5]];portConstraint=eastwest;" parent="29" vertex="1"><mxGeometry y="52" width="140" height="26" as="geometry"/></mxCell><mxCell id="32" value="owner: User" style="text;strokeColor=none;fillColor=none;align=left;verticalAlign=top;spacingLeft=4;spacingRight=4;overflow=hidden;rotatable=0;points=[[0,0.5],[1,0.5]];portConstraint=eastwest;" parent="29" vertex="1"><mxGeometry y="78" width="140" height="26" as="geometry"/></mxCell><mxCell id="33" value="order_date: datetime" style="text;strokeColor=none;fillColor=none;align=left;verticalAlign=top;spacingLeft=4;spacingRight=4;overflow=hidden;rotatable=0;points=[[0,0.5],[1,0.5]];portConstraint=eastwest;" parent="29" vertex="1"><mxGeometry y="104" width="140" height="26" as="geometry"/></mxCell><mxCell id="34" value="Product" style="swimlane;fontStyle=0;childLayout=stackLayout;horizontal=1;startSize=26;fillColor=none;horizontalStack=0;resizeParent=1;resizeParentMax=0;resizeLast=0;collapsible=1;marginBottom=0;" parent="1" vertex="1"><mxGeometry x="258" y="2528" width="140" height="104" as="geometry"/></mxCell><mxCell id="35" value="id: int" style="text;strokeColor=none;fillColor=none;align=left;verticalAlign=top;spacingLeft=4;spacingRight=4;overflow=hidden;rotatable=0;points=[[0,0.5],[1,0.5]];portConstraint=eastwest;" parent="34" vertex="1"><mxGeometry y="26" width="140" height="26" as="geometry"/></mxCell><mxCell id="36" value="name: str" style="text;strokeColor=none;fillColor=none;align=left;verticalAlign=top;spacingLeft=4;spacingRight=4;overflow=hidden;rotatable=0;points=[[0,0.5],[1,0.5]];portConstraint=eastwest;" parent="34" vertex="1"><mxGeometry y="52" width="140" height="26" as="geometry"/></mxCell><mxCell id="37" value="price: decimal" style="text;strokeColor=none;fillColor=none;align=left;verticalAlign=top;spacingLeft=4;spacingRight=4;overflow=hidden;rotatable=0;points=[[0,0.5],[1,0.5]];portConstraint=eastwest;" parent="34" vertex="1"><mxGeometry y="78" width="140" height="26" as="geometry"/></mxCell><mxCell id="38" value="Relation" style="endArrow=open;html=1;endSize=12;startArrow=open;startSize=14;startFill=0;edgeStyle=orthogonalEdgeStyle;rounded=0;entryX=0.505;entryY=1.103;entryDx=0;entryDy=0;entryPerimeter=0;exitX=1;exitY=0.333;exitDx=0;exitDy=0;exitPerimeter=0;" parent="1" source="35" target="33" edge="1"><mxGeometry relative="1" as="geometry"><mxPoint x="424" y="2588" as="sourcePoint"/><mxPoint x="584" y="2588" as="targetPoint"/><Array as="points"><mxPoint x="545" y="2563"/></Array></mxGeometry></mxCell><mxCell id="39" value="0..n" style="edgeLabel;resizable=0;html=1;align=left;verticalAlign=top;" parent="38" connectable="0" vertex="1"><mxGeometry x="-1" relative="1" as="geometry"/></mxCell><mxCell id="40" value="o..n" style="edgeLabel;resizable=0;html=1;align=right;verticalAlign=top;" parent="38" connectable="0" vertex="1"><mxGeometry x="1" relative="1" as="geometry"/></mxCell><mxCell id="60" value="UserTable" style="shape=table;startSize=30;container=1;collapsible=0;childLayout=tableLayout;fontStyle=1;align=center;" vertex="1" parent="1"><mxGeometry x="34" y="458" width="180" height="270" as="geometry"/></mxCell><mxCell id="61" value="" style="shape=tableRow;horizontal=0;startSize=0;swimlaneHead=0;swimlaneBody=0;top=0;left=0;bottom=0;right=0;collapsible=0;dropTarget=0;fillColor=none;points=[[0,0.5],[1,0.5]];portConstraint=eastwest;" vertex="1" parent="60"><mxGeometry y="30" width="180" height="60" as="geometry"/></mxCell><mxCell id="62" value="&lt;b&gt;id&lt;/b&gt;" style="shape=partialRectangle;html=1;whiteSpace=wrap;connectable=0;fillColor=none;top=0;left=0;bottom=0;right=0;overflow=hidden;" vertex="1" parent="61"><mxGeometry width="60" height="60" as="geometry"><mxRectangle width="60" height="60" as="alternateBounds"/></mxGeometry></mxCell><mxCell id="63" value="&lt;b&gt;login&lt;/b&gt;" style="shape=partialRectangle;html=1;whiteSpace=wrap;connectable=0;fillColor=none;top=0;left=0;bottom=0;right=0;overflow=hidden;" vertex="1" parent="61"><mxGeometry x="60" width="60" height="60" as="geometry"><mxRectangle width="60" height="60" as="alternateBounds"/></mxGeometry></mxCell><mxCell id="64" value="&lt;b&gt;password&lt;/b&gt;" style="shape=partialRectangle;html=1;whiteSpace=wrap;connectable=0;fillColor=none;top=0;left=0;bottom=0;right=0;overflow=hidden;" vertex="1" parent="61"><mxGeometry x="120" width="60" height="60" as="geometry"><mxRectangle width="60" height="60" as="alternateBounds"/></mxGeometry></mxCell><mxCell id="65" value="" style="shape=tableRow;horizontal=0;startSize=0;swimlaneHead=0;swimlaneBody=0;top=0;left=0;bottom=0;right=0;collapsible=0;dropTarget=0;fillColor=none;points=[[0,0.5],[1,0.5]];portConstraint=eastwest;" vertex="1" parent="60"><mxGeometry y="90" width="180" height="60" as="geometry"/></mxCell><mxCell id="66" value="1" style="shape=partialRectangle;html=1;whiteSpace=wrap;connectable=0;fillColor=none;top=0;left=0;bottom=0;right=0;overflow=hidden;" vertex="1" parent="65"><mxGeometry width="60" height="60" as="geometry"><mxRectangle width="60" height="60" as="alternateBounds"/></mxGeometry></mxCell><mxCell id="67" value="kos" style="shape=partialRectangle;html=1;whiteSpace=wrap;connectable=0;fillColor=none;top=0;left=0;bottom=0;right=0;overflow=hidden;" vertex="1" parent="65"><mxGeometry x="60" width="60" height="60" as="geometry"><mxRectangle width="60" height="60" as="alternateBounds"/></mxGeometry></mxCell><mxCell id="68" value="$3_34x" style="shape=partialRectangle;html=1;whiteSpace=wrap;connectable=0;fillColor=none;top=0;left=0;bottom=0;right=0;overflow=hidden;" vertex="1" parent="65"><mxGeometry x="120" width="60" height="60" as="geometry"><mxRectangle width="60" height="60" as="alternateBounds"/></mxGeometry></mxCell><mxCell id="69" value="" style="shape=tableRow;horizontal=0;startSize=0;swimlaneHead=0;swimlaneBody=0;top=0;left=0;bottom=0;right=0;collapsible=0;dropTarget=0;fillColor=none;points=[[0,0.5],[1,0.5]];portConstraint=eastwest;" vertex="1" parent="60"><mxGeometry y="150" width="180" height="60" as="geometry"/></mxCell><mxCell id="70" value="2" style="shape=partialRectangle;html=1;whiteSpace=wrap;connectable=0;fillColor=none;top=0;left=0;bottom=0;right=0;overflow=hidden;" vertex="1" parent="69"><mxGeometry width="60" height="60" as="geometry"><mxRectangle width="60" height="60" as="alternateBounds"/></mxGeometry></mxCell><mxCell id="71" value="ksuha" style="shape=partialRectangle;html=1;whiteSpace=wrap;connectable=0;fillColor=none;top=0;left=0;bottom=0;right=0;overflow=hidden;" vertex="1" parent="69"><mxGeometry x="60" width="60" height="60" as="geometry"><mxRectangle width="60" height="60" as="alternateBounds"/></mxGeometry></mxCell><mxCell id="72" value="uUcz_67" style="shape=partialRectangle;html=1;whiteSpace=wrap;connectable=0;fillColor=none;top=0;left=0;bottom=0;right=0;overflow=hidden;" vertex="1" parent="69"><mxGeometry x="120" width="60" height="60" as="geometry"><mxRectangle width="60" height="60" as="alternateBounds"/></mxGeometry></mxCell><mxCell id="73" value="" style="shape=tableRow;horizontal=0;startSize=0;swimlaneHead=0;swimlaneBody=0;top=0;left=0;bottom=0;right=0;collapsible=0;dropTarget=0;fillColor=none;points=[[0,0.5],[1,0.5]];portConstraint=eastwest;" vertex="1" parent="60"><mxGeometry y="210" width="180" height="60" as="geometry"/></mxCell><mxCell id="74" value="..." style="shape=partialRectangle;html=1;whiteSpace=wrap;connectable=0;fillColor=none;top=0;left=0;bottom=0;right=0;overflow=hidden;" vertex="1" parent="73"><mxGeometry width="60" height="60" as="geometry"><mxRectangle width="60" height="60" as="alternateBounds"/></mxGeometry></mxCell><mxCell id="75" value="..." style="shape=partialRectangle;html=1;whiteSpace=wrap;connectable=0;fillColor=none;top=0;left=0;bottom=0;right=0;overflow=hidden;" vertex="1" parent="73"><mxGeometry x="60" width="60" height="60" as="geometry"><mxRectangle width="60" height="60" as="alternateBounds"/></mxGeometry></mxCell><mxCell id="76" value="..." style="shape=partialRectangle;html=1;whiteSpace=wrap;connectable=0;fillColor=none;top=0;left=0;bottom=0;right=0;overflow=hidden;" vertex="1" parent="73"><mxGeometry x="120" width="60" height="60" as="geometry"><mxRectangle width="60" height="60" as="alternateBounds"/></mxGeometry></mxCell><mxCell id="77" value="ShoppingCartTable" style="shape=table;startSize=30;container=1;collapsible=0;childLayout=tableLayout;fontStyle=1;align=center;" vertex="1" parent="1"><mxGeometry x="382" y="484" width="259" height="270" as="geometry"/></mxCell><mxCell id="78" value="" style="shape=tableRow;horizontal=0;startSize=0;swimlaneHead=0;swimlaneBody=0;top=0;left=0;bottom=0;right=0;collapsible=0;dropTarget=0;fillColor=none;points=[[0,0.5],[1,0.5]];portConstraint=eastwest;" vertex="1" parent="77"><mxGeometry y="30" width="259" height="60" as="geometry"/></mxCell><mxCell id="79" value="&lt;b&gt;id&lt;/b&gt;" style="shape=partialRectangle;html=1;whiteSpace=wrap;connectable=0;fillColor=none;top=0;left=0;bottom=0;right=0;overflow=hidden;" vertex="1" parent="78"><mxGeometry width="86" height="60" as="geometry"><mxRectangle width="86" height="60" as="alternateBounds"/></mxGeometry></mxCell><mxCell id="80" value="&lt;b&gt;owner&lt;/b&gt;" style="shape=partialRectangle;html=1;whiteSpace=wrap;connectable=0;fillColor=none;top=0;left=0;bottom=0;right=0;overflow=hidden;strokeWidth=9;strokeColor=#CCFF99;" vertex="1" parent="78"><mxGeometry x="86" width="87" height="60" as="geometry"><mxRectangle width="87" height="60" as="alternateBounds"/></mxGeometry></mxCell><mxCell id="81" value="&lt;b&gt;products&lt;/b&gt;" style="shape=partialRectangle;html=1;whiteSpace=wrap;connectable=0;fillColor=none;top=0;left=0;bottom=0;right=0;overflow=hidden;" vertex="1" parent="78"><mxGeometry x="173" width="86" height="60" as="geometry"><mxRectangle width="86" height="60" as="alternateBounds"/></mxGeometry></mxCell><mxCell id="82" value="" style="shape=tableRow;horizontal=0;startSize=0;swimlaneHead=0;swimlaneBody=0;top=0;left=0;bottom=0;right=0;collapsible=0;dropTarget=0;fillColor=none;points=[[0,0.5],[1,0.5]];portConstraint=eastwest;" vertex="1" parent="77"><mxGeometry y="90" width="259" height="60" as="geometry"/></mxCell><mxCell id="83" value="1" style="shape=partialRectangle;html=1;whiteSpace=wrap;connectable=0;fillColor=none;top=0;left=0;bottom=0;right=0;overflow=hidden;" vertex="1" parent="82"><mxGeometry width="86" height="60" as="geometry"><mxRectangle width="86" height="60" as="alternateBounds"/></mxGeometry></mxCell><mxCell id="84" value="2" style="shape=partialRectangle;html=1;whiteSpace=wrap;connectable=0;fillColor=none;top=0;left=0;bottom=0;right=0;overflow=hidden;strokeWidth=9;strokeColor=#CCFF99;" vertex="1" parent="82"><mxGeometry x="86" width="87" height="60" as="geometry"><mxRectangle width="87" height="60" as="alternateBounds"/></mxGeometry></mxCell><mxCell id="85" value="?" style="shape=partialRectangle;html=1;whiteSpace=wrap;connectable=0;fillColor=none;top=0;left=0;bottom=0;right=0;overflow=hidden;" vertex="1" parent="82"><mxGeometry x="173" width="86" height="60" as="geometry"><mxRectangle width="86" height="60" as="alternateBounds"/></mxGeometry></mxCell><mxCell id="86" value="" style="shape=tableRow;horizontal=0;startSize=0;swimlaneHead=0;swimlaneBody=0;top=0;left=0;bottom=0;right=0;collapsible=0;dropTarget=0;fillColor=none;points=[[0,0.5],[1,0.5]];portConstraint=eastwest;" vertex="1" parent="77"><mxGeometry y="150" width="259" height="60" as="geometry"/></mxCell><mxCell id="87" value="2" style="shape=partialRectangle;html=1;whiteSpace=wrap;connectable=0;fillColor=none;top=0;left=0;bottom=0;right=0;overflow=hidden;" vertex="1" parent="86"><mxGeometry width="86" height="60" as="geometry"><mxRectangle width="86" height="60" as="alternateBounds"/></mxGeometry></mxCell><mxCell id="88" value="1" style="shape=partialRectangle;html=1;whiteSpace=wrap;connectable=0;fillColor=none;top=0;left=0;bottom=0;right=0;overflow=hidden;strokeWidth=9;strokeColor=#CCFF99;" vertex="1" parent="86"><mxGeometry x="86" width="87" height="60" as="geometry"><mxRectangle width="87" height="60" as="alternateBounds"/></mxGeometry></mxCell><mxCell id="89" value="?" style="shape=partialRectangle;html=1;whiteSpace=wrap;connectable=0;fillColor=none;top=0;left=0;bottom=0;right=0;overflow=hidden;" vertex="1" parent="86"><mxGeometry x="173" width="86" height="60" as="geometry"><mxRectangle width="86" height="60" as="alternateBounds"/></mxGeometry></mxCell><mxCell id="90" value="" style="shape=tableRow;horizontal=0;startSize=0;swimlaneHead=0;swimlaneBody=0;top=0;left=0;bottom=0;right=0;collapsible=0;dropTarget=0;fillColor=none;points=[[0,0.5],[1,0.5]];portConstraint=eastwest;" vertex="1" parent="77"><mxGeometry y="210" width="259" height="60" as="geometry"/></mxCell><mxCell id="91" value="..." style="shape=partialRectangle;html=1;whiteSpace=wrap;connectable=0;fillColor=none;top=0;left=0;bottom=0;right=0;overflow=hidden;" vertex="1" parent="90"><mxGeometry width="86" height="60" as="geometry"><mxRectangle width="86" height="60" as="alternateBounds"/></mxGeometry></mxCell><mxCell id="92" value="..." style="shape=partialRectangle;html=1;whiteSpace=wrap;connectable=0;fillColor=none;top=0;left=0;bottom=0;right=0;overflow=hidden;strokeWidth=9;strokeColor=#CCFF99;" vertex="1" parent="90"><mxGeometry x="86" width="87" height="60" as="geometry"><mxRectangle width="87" height="60" as="alternateBounds"/></mxGeometry></mxCell><mxCell id="93" value="..." style="shape=partialRectangle;html=1;whiteSpace=wrap;connectable=0;fillColor=none;top=0;left=0;bottom=0;right=0;overflow=hidden;" vertex="1" parent="90"><mxGeometry x="173" width="86" height="60" as="geometry"><mxRectangle width="86" height="60" as="alternateBounds"/></mxGeometry></mxCell><mxCell id="140" style="edgeStyle=elbowEdgeStyle;rounded=0;orthogonalLoop=1;jettySize=auto;html=1;exitX=0.5;exitY=1;exitDx=0;exitDy=0;entryX=0.5;entryY=1;entryDx=0;entryDy=0;elbow=vertical;strokeColor=#FFFF66;strokeWidth=3;dashed=1;fontFamily=Manrope;fontSource=https%3A%2F%2Ffonts.googleapis.com%2Fcss%3Ffamily%3DManrope;" edge="1" parent="1" source="130"><mxGeometry relative="1" as="geometry"><mxPoint x="65.5" y="743" as="targetPoint"/><Array as="points"><mxPoint x="289" y="810"/></Array></mxGeometry></mxCell><mxCell id="130" value="" style="rounded=0;whiteSpace=wrap;html=1;strokeColor=#CCFF99;strokeWidth=3;fillColor=none;dashed=1;" vertex="1" parent="1"><mxGeometry x="460.5" y="559" width="102" height="209" as="geometry"/></mxCell><mxCell id="132" value="" style="rounded=0;whiteSpace=wrap;html=1;dashed=1;strokeColor=#CCFF99;strokeWidth=3;fillColor=none;" vertex="1" parent="1"><mxGeometry x="22" y="536" width="85" height="207" as="geometry"/></mxCell><mxCell id="143" value="&lt;font color=&quot;#1a1a1a&quot;&gt;FK ref UserTable_id + unique&lt;/font&gt;" style="rounded=1;whiteSpace=wrap;html=1;strokeColor=#CCFF99;strokeWidth=3;fillColor=#FFFF66;fontFamily=Manrope;fontSource=https%3A%2F%2Ffonts.googleapis.com%2Fcss%3Ffamily%3DManrope;fontStyle=1" vertex="1" parent="1"><mxGeometry x="216" y="780" width="171" height="60" as="geometry"/></mxCell><mxCell id="144" style="edgeStyle=elbowEdgeStyle;rounded=0;orthogonalLoop=1;jettySize=auto;elbow=vertical;html=1;exitX=0.25;exitY=0;exitDx=0;exitDy=0;dashed=1;strokeColor=#FFFF66;strokeWidth=3;fontFamily=Manrope;fontSource=https%3A%2F%2Ffonts.googleapis.com%2Fcss%3Ffamily%3DManrope;fontColor=#1A1A1A;" edge="1" parent="1" source="132" target="132"><mxGeometry relative="1" as="geometry"/></mxCell><mxCell id="145" value="UserTable" style="shape=table;startSize=30;container=1;collapsible=0;childLayout=tableLayout;fontStyle=1;align=center;" vertex="1" parent="1"><mxGeometry x="67" y="1596" width="180" height="270" as="geometry"/></mxCell><mxCell id="146" value="" style="shape=tableRow;horizontal=0;startSize=0;swimlaneHead=0;swimlaneBody=0;top=0;left=0;bottom=0;right=0;collapsible=0;dropTarget=0;fillColor=none;points=[[0,0.5],[1,0.5]];portConstraint=eastwest;" vertex="1" parent="145"><mxGeometry y="30" width="180" height="60" as="geometry"/></mxCell><mxCell id="147" value="&lt;b&gt;id&lt;/b&gt;" style="shape=partialRectangle;html=1;whiteSpace=wrap;connectable=0;fillColor=none;top=0;left=0;bottom=0;right=0;overflow=hidden;" vertex="1" parent="146"><mxGeometry width="60" height="60" as="geometry"><mxRectangle width="60" height="60" as="alternateBounds"/></mxGeometry></mxCell><mxCell id="148" value="&lt;b&gt;login&lt;/b&gt;" style="shape=partialRectangle;html=1;whiteSpace=wrap;connectable=0;fillColor=none;top=0;left=0;bottom=0;right=0;overflow=hidden;" vertex="1" parent="146"><mxGeometry x="60" width="60" height="60" as="geometry"><mxRectangle width="60" height="60" as="alternateBounds"/></mxGeometry></mxCell><mxCell id="149" value="&lt;b&gt;password&lt;/b&gt;" style="shape=partialRectangle;html=1;whiteSpace=wrap;connectable=0;fillColor=none;top=0;left=0;bottom=0;right=0;overflow=hidden;" vertex="1" parent="146"><mxGeometry x="120" width="60" height="60" as="geometry"><mxRectangle width="60" height="60" as="alternateBounds"/></mxGeometry></mxCell><mxCell id="150" value="" style="shape=tableRow;horizontal=0;startSize=0;swimlaneHead=0;swimlaneBody=0;top=0;left=0;bottom=0;right=0;collapsible=0;dropTarget=0;fillColor=none;points=[[0,0.5],[1,0.5]];portConstraint=eastwest;" vertex="1" parent="145"><mxGeometry y="90" width="180" height="60" as="geometry"/></mxCell><mxCell id="151" value="1" style="shape=partialRectangle;html=1;whiteSpace=wrap;connectable=0;fillColor=none;top=0;left=0;bottom=0;right=0;overflow=hidden;" vertex="1" parent="150"><mxGeometry width="60" height="60" as="geometry"><mxRectangle width="60" height="60" as="alternateBounds"/></mxGeometry></mxCell><mxCell id="152" value="kos" style="shape=partialRectangle;html=1;whiteSpace=wrap;connectable=0;fillColor=none;top=0;left=0;bottom=0;right=0;overflow=hidden;" vertex="1" parent="150"><mxGeometry x="60" width="60" height="60" as="geometry"><mxRectangle width="60" height="60" as="alternateBounds"/></mxGeometry></mxCell><mxCell id="153" value="$3_34x" style="shape=partialRectangle;html=1;whiteSpace=wrap;connectable=0;fillColor=none;top=0;left=0;bottom=0;right=0;overflow=hidden;" vertex="1" parent="150"><mxGeometry x="120" width="60" height="60" as="geometry"><mxRectangle width="60" height="60" as="alternateBounds"/></mxGeometry></mxCell><mxCell id="154" value="" style="shape=tableRow;horizontal=0;startSize=0;swimlaneHead=0;swimlaneBody=0;top=0;left=0;bottom=0;right=0;collapsible=0;dropTarget=0;fillColor=none;points=[[0,0.5],[1,0.5]];portConstraint=eastwest;" vertex="1" parent="145"><mxGeometry y="150" width="180" height="60" as="geometry"/></mxCell><mxCell id="155" value="2" style="shape=partialRectangle;html=1;whiteSpace=wrap;connectable=0;fillColor=none;top=0;left=0;bottom=0;right=0;overflow=hidden;" vertex="1" parent="154"><mxGeometry width="60" height="60" as="geometry"><mxRectangle width="60" height="60" as="alternateBounds"/></mxGeometry></mxCell><mxCell id="156" value="ksuha" style="shape=partialRectangle;html=1;whiteSpace=wrap;connectable=0;fillColor=none;top=0;left=0;bottom=0;right=0;overflow=hidden;" vertex="1" parent="154"><mxGeometry x="60" width="60" height="60" as="geometry"><mxRectangle width="60" height="60" as="alternateBounds"/></mxGeometry></mxCell><mxCell id="157" value="uUcz_67" style="shape=partialRectangle;html=1;whiteSpace=wrap;connectable=0;fillColor=none;top=0;left=0;bottom=0;right=0;overflow=hidden;" vertex="1" parent="154"><mxGeometry x="120" width="60" height="60" as="geometry"><mxRectangle width="60" height="60" as="alternateBounds"/></mxGeometry></mxCell><mxCell id="158" value="" style="shape=tableRow;horizontal=0;startSize=0;swimlaneHead=0;swimlaneBody=0;top=0;left=0;bottom=0;right=0;collapsible=0;dropTarget=0;fillColor=none;points=[[0,0.5],[1,0.5]];portConstraint=eastwest;" vertex="1" parent="145"><mxGeometry y="210" width="180" height="60" as="geometry"/></mxCell><mxCell id="159" value="..." style="shape=partialRectangle;html=1;whiteSpace=wrap;connectable=0;fillColor=none;top=0;left=0;bottom=0;right=0;overflow=hidden;" vertex="1" parent="158"><mxGeometry width="60" height="60" as="geometry"><mxRectangle width="60" height="60" as="alternateBounds"/></mxGeometry></mxCell><mxCell id="160" value="..." style="shape=partialRectangle;html=1;whiteSpace=wrap;connectable=0;fillColor=none;top=0;left=0;bottom=0;right=0;overflow=hidden;" vertex="1" parent="158"><mxGeometry x="60" width="60" height="60" as="geometry"><mxRectangle width="60" height="60" as="alternateBounds"/></mxGeometry></mxCell><mxCell id="161" value="..." style="shape=partialRectangle;html=1;whiteSpace=wrap;connectable=0;fillColor=none;top=0;left=0;bottom=0;right=0;overflow=hidden;" vertex="1" parent="158"><mxGeometry x="120" width="60" height="60" as="geometry"><mxRectangle width="60" height="60" as="alternateBounds"/></mxGeometry></mxCell><mxCell id="179" style="edgeStyle=elbowEdgeStyle;rounded=0;orthogonalLoop=1;jettySize=auto;html=1;exitX=0.5;exitY=1;exitDx=0;exitDy=0;entryX=0.5;entryY=1;entryDx=0;entryDy=0;elbow=vertical;strokeColor=#FFFF66;strokeWidth=3;dashed=1;fontFamily=Manrope;fontSource=https%3A%2F%2Ffonts.googleapis.com%2Fcss%3Ffamily%3DManrope;" edge="1" source="180" parent="1"><mxGeometry relative="1" as="geometry"><mxPoint x="98.5" y="1881" as="targetPoint"/><Array as="points"><mxPoint x="322" y="1948"/></Array></mxGeometry></mxCell><mxCell id="180" value="" style="rounded=0;whiteSpace=wrap;html=1;strokeColor=#CCFF99;strokeWidth=3;fillColor=none;dashed=1;" vertex="1" parent="1"><mxGeometry x="577" y="1665" width="83" height="209" as="geometry"/></mxCell><mxCell id="181" value="" style="rounded=0;whiteSpace=wrap;html=1;dashed=1;strokeColor=#CCFF99;strokeWidth=3;fillColor=none;" vertex="1" parent="1"><mxGeometry x="55" y="1674" width="85" height="207" as="geometry"/></mxCell><mxCell id="182" value="&lt;font color=&quot;#1a1a1a&quot;&gt;FK ref UserTable_id&amp;nbsp;&lt;/font&gt;" style="rounded=1;whiteSpace=wrap;html=1;strokeColor=#CCFF99;strokeWidth=3;fillColor=#FFFF66;fontFamily=Manrope;fontSource=https%3A%2F%2Ffonts.googleapis.com%2Fcss%3Ffamily%3DManrope;fontStyle=1" vertex="1" parent="1"><mxGeometry x="249" y="1918" width="171" height="60" as="geometry"/></mxCell><mxCell id="183" style="edgeStyle=elbowEdgeStyle;rounded=0;orthogonalLoop=1;jettySize=auto;elbow=vertical;html=1;exitX=0.25;exitY=0;exitDx=0;exitDy=0;dashed=1;strokeColor=#FFFF66;strokeWidth=3;fontFamily=Manrope;fontSource=https%3A%2F%2Ffonts.googleapis.com%2Fcss%3Ffamily%3DManrope;fontColor=#1A1A1A;" edge="1" source="181" target="181" parent="1"><mxGeometry relative="1" as="geometry"/></mxCell><mxCell id="188" value="OrderTable" style="shape=table;startSize=30;container=1;collapsible=0;childLayout=tableLayout;fontStyle=0;align=center;strokeColor=#FFFFFF;strokeWidth=1;fontFamily=Manrope;fontSource=https%3A%2F%2Ffonts.googleapis.com%2Fcss%3Ffamily%3DManrope;fontColor=#FFFFFF;fillColor=none;" vertex="1" parent="1"><mxGeometry x="445" y="1598" width="276" height="270" as="geometry"/></mxCell><mxCell id="189" value="" style="shape=tableRow;horizontal=0;startSize=0;swimlaneHead=0;swimlaneBody=0;top=0;left=0;bottom=0;right=0;collapsible=0;dropTarget=0;fillColor=none;points=[[0,0.5],[1,0.5]];portConstraint=eastwest;strokeColor=#CCFF99;strokeWidth=3;fontFamily=Manrope;fontSource=https%3A%2F%2Ffonts.googleapis.com%2Fcss%3Ffamily%3DManrope;fontColor=#FFFFFF;fontStyle=0" vertex="1" parent="188"><mxGeometry y="30" width="276" height="40" as="geometry"/></mxCell><mxCell id="201" value="id" style="shape=partialRectangle;html=1;whiteSpace=wrap;connectable=0;fillColor=none;top=0;left=0;bottom=0;right=0;overflow=hidden;strokeColor=#CCFF99;strokeWidth=3;fontFamily=Manrope;fontSource=https%3A%2F%2Ffonts.googleapis.com%2Fcss%3Ffamily%3DManrope;fontColor=#FFFFFF;fontStyle=0" vertex="1" parent="189"><mxGeometry width="69" height="40" as="geometry"><mxRectangle width="69" height="40" as="alternateBounds"/></mxGeometry></mxCell><mxCell id="190" value="products" style="shape=partialRectangle;html=1;whiteSpace=wrap;connectable=0;fillColor=none;top=0;left=0;bottom=0;right=0;overflow=hidden;strokeColor=#CCFF99;strokeWidth=3;fontFamily=Manrope;fontSource=https%3A%2F%2Ffonts.googleapis.com%2Fcss%3Ffamily%3DManrope;fontColor=#FFFFFF;fontStyle=0" vertex="1" parent="189"><mxGeometry x="69" width="69" height="40" as="geometry"><mxRectangle width="69" height="40" as="alternateBounds"/></mxGeometry></mxCell><mxCell id="191" value="owner" style="shape=partialRectangle;html=1;whiteSpace=wrap;connectable=0;fillColor=none;top=0;left=0;bottom=0;right=0;overflow=hidden;strokeColor=#CCFF99;strokeWidth=3;fontFamily=Manrope;fontSource=https%3A%2F%2Ffonts.googleapis.com%2Fcss%3Ffamily%3DManrope;fontColor=#FFFFFF;fontStyle=0" vertex="1" parent="189"><mxGeometry x="138" width="69" height="40" as="geometry"><mxRectangle width="69" height="40" as="alternateBounds"/></mxGeometry></mxCell><mxCell id="192" value="order_date" style="shape=partialRectangle;html=1;whiteSpace=wrap;connectable=0;fillColor=none;top=0;left=0;bottom=0;right=0;overflow=hidden;strokeColor=#CCFF99;strokeWidth=3;fontFamily=Manrope;fontSource=https%3A%2F%2Ffonts.googleapis.com%2Fcss%3Ffamily%3DManrope;fontColor=#FFFFFF;fontStyle=0" vertex="1" parent="189"><mxGeometry x="207" width="69" height="40" as="geometry"><mxRectangle width="69" height="40" as="alternateBounds"/></mxGeometry></mxCell><mxCell id="193" value="" style="shape=tableRow;horizontal=0;startSize=0;swimlaneHead=0;swimlaneBody=0;top=0;left=0;bottom=0;right=0;collapsible=0;dropTarget=0;fillColor=none;points=[[0,0.5],[1,0.5]];portConstraint=eastwest;strokeColor=#CCFF99;strokeWidth=3;fontFamily=Manrope;fontSource=https%3A%2F%2Ffonts.googleapis.com%2Fcss%3Ffamily%3DManrope;fontColor=#FFFFFF;fontStyle=0" vertex="1" parent="188"><mxGeometry y="70" width="276" height="40" as="geometry"/></mxCell><mxCell id="202" value="1" style="shape=partialRectangle;html=1;whiteSpace=wrap;connectable=0;fillColor=none;top=0;left=0;bottom=0;right=0;overflow=hidden;strokeColor=#CCFF99;strokeWidth=3;fontFamily=Manrope;fontSource=https%3A%2F%2Ffonts.googleapis.com%2Fcss%3Ffamily%3DManrope;fontColor=#FFFFFF;fontStyle=0" vertex="1" parent="193"><mxGeometry width="69" height="40" as="geometry"><mxRectangle width="69" height="40" as="alternateBounds"/></mxGeometry></mxCell><mxCell id="194" value="?" style="shape=partialRectangle;html=1;whiteSpace=wrap;connectable=0;fillColor=none;top=0;left=0;bottom=0;right=0;overflow=hidden;strokeColor=#CCFF99;strokeWidth=3;fontFamily=Manrope;fontSource=https%3A%2F%2Ffonts.googleapis.com%2Fcss%3Ffamily%3DManrope;fontColor=#FFFFFF;fontStyle=0" vertex="1" parent="193"><mxGeometry x="69" width="69" height="40" as="geometry"><mxRectangle width="69" height="40" as="alternateBounds"/></mxGeometry></mxCell><mxCell id="195" value="2" style="shape=partialRectangle;html=1;whiteSpace=wrap;connectable=0;fillColor=none;top=0;left=0;bottom=0;right=0;overflow=hidden;strokeColor=#CCFF99;strokeWidth=3;fontFamily=Manrope;fontSource=https%3A%2F%2Ffonts.googleapis.com%2Fcss%3Ffamily%3DManrope;fontColor=#FFFFFF;fontStyle=0" vertex="1" parent="193"><mxGeometry x="138" width="69" height="40" as="geometry"><mxRectangle width="69" height="40" as="alternateBounds"/></mxGeometry></mxCell><mxCell id="196" value="2023-11-26" style="shape=partialRectangle;html=1;whiteSpace=wrap;connectable=0;fillColor=none;top=0;left=0;bottom=0;right=0;overflow=hidden;strokeColor=#CCFF99;strokeWidth=3;fontFamily=Manrope;fontSource=https%3A%2F%2Ffonts.googleapis.com%2Fcss%3Ffamily%3DManrope;fontColor=#FFFFFF;fontStyle=0" vertex="1" parent="193"><mxGeometry x="207" width="69" height="40" as="geometry"><mxRectangle width="69" height="40" as="alternateBounds"/></mxGeometry></mxCell><mxCell id="197" value="" style="shape=tableRow;horizontal=0;startSize=0;swimlaneHead=0;swimlaneBody=0;top=0;left=0;bottom=0;right=0;collapsible=0;dropTarget=0;fillColor=none;points=[[0,0.5],[1,0.5]];portConstraint=eastwest;strokeColor=#CCFF99;strokeWidth=3;fontFamily=Manrope;fontSource=https%3A%2F%2Ffonts.googleapis.com%2Fcss%3Ffamily%3DManrope;fontColor=#FFFFFF;fontStyle=0" vertex="1" parent="188"><mxGeometry y="110" width="276" height="40" as="geometry"/></mxCell><mxCell id="203" value="2" style="shape=partialRectangle;html=1;whiteSpace=wrap;connectable=0;fillColor=none;top=0;left=0;bottom=0;right=0;overflow=hidden;strokeColor=#CCFF99;strokeWidth=3;fontFamily=Manrope;fontSource=https%3A%2F%2Ffonts.googleapis.com%2Fcss%3Ffamily%3DManrope;fontColor=#FFFFFF;fontStyle=0" vertex="1" parent="197"><mxGeometry width="69" height="40" as="geometry"><mxRectangle width="69" height="40" as="alternateBounds"/></mxGeometry></mxCell><mxCell id="198" value="?" style="shape=partialRectangle;html=1;whiteSpace=wrap;connectable=0;fillColor=none;top=0;left=0;bottom=0;right=0;overflow=hidden;strokeColor=#CCFF99;strokeWidth=3;fontFamily=Manrope;fontSource=https%3A%2F%2Ffonts.googleapis.com%2Fcss%3Ffamily%3DManrope;fontColor=#FFFFFF;fontStyle=0" vertex="1" parent="197"><mxGeometry x="69" width="69" height="40" as="geometry"><mxRectangle width="69" height="40" as="alternateBounds"/></mxGeometry></mxCell><mxCell id="199" value="2" style="shape=partialRectangle;html=1;whiteSpace=wrap;connectable=0;fillColor=none;top=0;left=0;bottom=0;right=0;overflow=hidden;strokeColor=#CCFF99;strokeWidth=3;fontFamily=Manrope;fontSource=https%3A%2F%2Ffonts.googleapis.com%2Fcss%3Ffamily%3DManrope;fontColor=#FFFFFF;fontStyle=0" vertex="1" parent="197"><mxGeometry x="138" width="69" height="40" as="geometry"><mxRectangle width="69" height="40" as="alternateBounds"/></mxGeometry></mxCell><mxCell id="200" value="2023-10-15" style="shape=partialRectangle;html=1;whiteSpace=wrap;connectable=0;fillColor=none;top=0;left=0;bottom=0;right=0;overflow=hidden;strokeColor=#CCFF99;strokeWidth=3;fontFamily=Manrope;fontSource=https%3A%2F%2Ffonts.googleapis.com%2Fcss%3Ffamily%3DManrope;fontColor=#FFFFFF;fontStyle=0" vertex="1" parent="197"><mxGeometry x="207" width="69" height="40" as="geometry"><mxRectangle width="69" height="40" as="alternateBounds"/></mxGeometry></mxCell><mxCell id="214" style="shape=tableRow;horizontal=0;startSize=0;swimlaneHead=0;swimlaneBody=0;top=0;left=0;bottom=0;right=0;collapsible=0;dropTarget=0;fillColor=none;points=[[0,0.5],[1,0.5]];portConstraint=eastwest;strokeColor=#CCFF99;strokeWidth=3;fontFamily=Manrope;fontSource=https%3A%2F%2Ffonts.googleapis.com%2Fcss%3Ffamily%3DManrope;fontColor=#FFFFFF;fontStyle=0" vertex="1" parent="188"><mxGeometry y="150" width="276" height="40" as="geometry"/></mxCell><mxCell id="215" value="3" style="shape=partialRectangle;html=1;whiteSpace=wrap;connectable=0;fillColor=none;top=0;left=0;bottom=0;right=0;overflow=hidden;strokeColor=#CCFF99;strokeWidth=3;fontFamily=Manrope;fontSource=https%3A%2F%2Ffonts.googleapis.com%2Fcss%3Ffamily%3DManrope;fontColor=#FFFFFF;fontStyle=0" vertex="1" parent="214"><mxGeometry width="69" height="40" as="geometry"><mxRectangle width="69" height="40" as="alternateBounds"/></mxGeometry></mxCell><mxCell id="216" value="?" style="shape=partialRectangle;html=1;whiteSpace=wrap;connectable=0;fillColor=none;top=0;left=0;bottom=0;right=0;overflow=hidden;strokeColor=#CCFF99;strokeWidth=3;fontFamily=Manrope;fontSource=https%3A%2F%2Ffonts.googleapis.com%2Fcss%3Ffamily%3DManrope;fontColor=#FFFFFF;fontStyle=0" vertex="1" parent="214"><mxGeometry x="69" width="69" height="40" as="geometry"><mxRectangle width="69" height="40" as="alternateBounds"/></mxGeometry></mxCell><mxCell id="217" value="1" style="shape=partialRectangle;html=1;whiteSpace=wrap;connectable=0;fillColor=none;top=0;left=0;bottom=0;right=0;overflow=hidden;strokeColor=#CCFF99;strokeWidth=3;fontFamily=Manrope;fontSource=https%3A%2F%2Ffonts.googleapis.com%2Fcss%3Ffamily%3DManrope;fontColor=#FFFFFF;fontStyle=0" vertex="1" parent="214"><mxGeometry x="138" width="69" height="40" as="geometry"><mxRectangle width="69" height="40" as="alternateBounds"/></mxGeometry></mxCell><mxCell id="218" value="2023-11-27" style="shape=partialRectangle;html=1;whiteSpace=wrap;connectable=0;fillColor=none;top=0;left=0;bottom=0;right=0;overflow=hidden;strokeColor=#CCFF99;strokeWidth=3;fontFamily=Manrope;fontSource=https%3A%2F%2Ffonts.googleapis.com%2Fcss%3Ffamily%3DManrope;fontColor=#FFFFFF;fontStyle=0" vertex="1" parent="214"><mxGeometry x="207" width="69" height="40" as="geometry"><mxRectangle width="69" height="40" as="alternateBounds"/></mxGeometry></mxCell><mxCell id="209" style="shape=tableRow;horizontal=0;startSize=0;swimlaneHead=0;swimlaneBody=0;top=0;left=0;bottom=0;right=0;collapsible=0;dropTarget=0;fillColor=none;points=[[0,0.5],[1,0.5]];portConstraint=eastwest;strokeColor=#CCFF99;strokeWidth=3;fontFamily=Manrope;fontSource=https%3A%2F%2Ffonts.googleapis.com%2Fcss%3Ffamily%3DManrope;fontColor=#FFFFFF;fontStyle=0" vertex="1" parent="188"><mxGeometry y="190" width="276" height="40" as="geometry"/></mxCell><mxCell id="210" value="4" style="shape=partialRectangle;html=1;whiteSpace=wrap;connectable=0;fillColor=none;top=0;left=0;bottom=0;right=0;overflow=hidden;strokeColor=#CCFF99;strokeWidth=3;fontFamily=Manrope;fontSource=https%3A%2F%2Ffonts.googleapis.com%2Fcss%3Ffamily%3DManrope;fontColor=#FFFFFF;fontStyle=0" vertex="1" parent="209"><mxGeometry width="69" height="40" as="geometry"><mxRectangle width="69" height="40" as="alternateBounds"/></mxGeometry></mxCell><mxCell id="211" value="?" style="shape=partialRectangle;html=1;whiteSpace=wrap;connectable=0;fillColor=none;top=0;left=0;bottom=0;right=0;overflow=hidden;strokeColor=#CCFF99;strokeWidth=3;fontFamily=Manrope;fontSource=https%3A%2F%2Ffonts.googleapis.com%2Fcss%3Ffamily%3DManrope;fontColor=#FFFFFF;fontStyle=0" vertex="1" parent="209"><mxGeometry x="69" width="69" height="40" as="geometry"><mxRectangle width="69" height="40" as="alternateBounds"/></mxGeometry></mxCell><mxCell id="212" value="2" style="shape=partialRectangle;html=1;whiteSpace=wrap;connectable=0;fillColor=none;top=0;left=0;bottom=0;right=0;overflow=hidden;strokeColor=#CCFF99;strokeWidth=3;fontFamily=Manrope;fontSource=https%3A%2F%2Ffonts.googleapis.com%2Fcss%3Ffamily%3DManrope;fontColor=#FFFFFF;fontStyle=0" vertex="1" parent="209"><mxGeometry x="138" width="69" height="40" as="geometry"><mxRectangle width="69" height="40" as="alternateBounds"/></mxGeometry></mxCell><mxCell id="213" value="2023-11-07" style="shape=partialRectangle;html=1;whiteSpace=wrap;connectable=0;fillColor=none;top=0;left=0;bottom=0;right=0;overflow=hidden;strokeColor=#CCFF99;strokeWidth=3;fontFamily=Manrope;fontSource=https%3A%2F%2Ffonts.googleapis.com%2Fcss%3Ffamily%3DManrope;fontColor=#FFFFFF;fontStyle=0" vertex="1" parent="209"><mxGeometry x="207" width="69" height="40" as="geometry"><mxRectangle width="69" height="40" as="alternateBounds"/></mxGeometry></mxCell><mxCell id="204" style="shape=tableRow;horizontal=0;startSize=0;swimlaneHead=0;swimlaneBody=0;top=0;left=0;bottom=0;right=0;collapsible=0;dropTarget=0;fillColor=none;points=[[0,0.5],[1,0.5]];portConstraint=eastwest;strokeColor=#CCFF99;strokeWidth=3;fontFamily=Manrope;fontSource=https%3A%2F%2Ffonts.googleapis.com%2Fcss%3Ffamily%3DManrope;fontColor=#FFFFFF;fontStyle=0" vertex="1" parent="188"><mxGeometry y="230" width="276" height="40" as="geometry"/></mxCell><mxCell id="205" value="..." style="shape=partialRectangle;html=1;whiteSpace=wrap;connectable=0;fillColor=none;top=0;left=0;bottom=0;right=0;overflow=hidden;strokeColor=#CCFF99;strokeWidth=3;fontFamily=Manrope;fontSource=https%3A%2F%2Ffonts.googleapis.com%2Fcss%3Ffamily%3DManrope;fontColor=#FFFFFF;fontStyle=0" vertex="1" parent="204"><mxGeometry width="69" height="40" as="geometry"><mxRectangle width="69" height="40" as="alternateBounds"/></mxGeometry></mxCell><mxCell id="206" value="..." style="shape=partialRectangle;html=1;whiteSpace=wrap;connectable=0;fillColor=none;top=0;left=0;bottom=0;right=0;overflow=hidden;strokeColor=#CCFF99;strokeWidth=3;fontFamily=Manrope;fontSource=https%3A%2F%2Ffonts.googleapis.com%2Fcss%3Ffamily%3DManrope;fontColor=#FFFFFF;fontStyle=0" vertex="1" parent="204"><mxGeometry x="69" width="69" height="40" as="geometry"><mxRectangle width="69" height="40" as="alternateBounds"/></mxGeometry></mxCell><mxCell id="207" value="..." style="shape=partialRectangle;html=1;whiteSpace=wrap;connectable=0;fillColor=none;top=0;left=0;bottom=0;right=0;overflow=hidden;strokeColor=#CCFF99;strokeWidth=3;fontFamily=Manrope;fontSource=https%3A%2F%2Ffonts.googleapis.com%2Fcss%3Ffamily%3DManrope;fontColor=#FFFFFF;fontStyle=0" vertex="1" parent="204"><mxGeometry x="138" width="69" height="40" as="geometry"><mxRectangle width="69" height="40" as="alternateBounds"/></mxGeometry></mxCell><mxCell id="208" value="..." style="shape=partialRectangle;html=1;whiteSpace=wrap;connectable=0;fillColor=none;top=0;left=0;bottom=0;right=0;overflow=hidden;strokeColor=#CCFF99;strokeWidth=3;fontFamily=Manrope;fontSource=https%3A%2F%2Ffonts.googleapis.com%2Fcss%3Ffamily%3DManrope;fontColor=#FFFFFF;fontStyle=0" vertex="1" parent="204"><mxGeometry x="207" width="69" height="40" as="geometry"><mxRectangle width="69" height="40" as="alternateBounds"/></mxGeometry></mxCell><mxCell id="232" value="" style="rounded=0;whiteSpace=wrap;html=1;strokeColor=#CCFF99;strokeWidth=3;fillColor=none;dashed=1;" vertex="1" parent="1"><mxGeometry x="6" y="2736" width="83" height="209" as="geometry"/></mxCell><mxCell id="233" value="OrderTable" style="shape=table;startSize=30;container=1;collapsible=0;childLayout=tableLayout;fontStyle=0;align=center;strokeColor=#FFFFFF;strokeWidth=1;fontFamily=Manrope;fontSource=https%3A%2F%2Ffonts.googleapis.com%2Fcss%3Ffamily%3DManrope;fontColor=#FFFFFF;fillColor=none;" vertex="1" parent="1"><mxGeometry x="13" y="2671" width="276" height="270" as="geometry"/></mxCell><mxCell id="234" value="" style="shape=tableRow;horizontal=0;startSize=0;swimlaneHead=0;swimlaneBody=0;top=0;left=0;bottom=0;right=0;collapsible=0;dropTarget=0;fillColor=none;points=[[0,0.5],[1,0.5]];portConstraint=eastwest;strokeColor=#CCFF99;strokeWidth=3;fontFamily=Manrope;fontSource=https%3A%2F%2Ffonts.googleapis.com%2Fcss%3Ffamily%3DManrope;fontColor=#FFFFFF;fontStyle=0" vertex="1" parent="233"><mxGeometry y="30" width="276" height="40" as="geometry"/></mxCell><mxCell id="235" value="id" style="shape=partialRectangle;html=1;whiteSpace=wrap;connectable=0;fillColor=none;top=0;left=0;bottom=0;right=0;overflow=hidden;strokeColor=#CCFF99;strokeWidth=3;fontFamily=Manrope;fontSource=https%3A%2F%2Ffonts.googleapis.com%2Fcss%3Ffamily%3DManrope;fontColor=#FFFFFF;fontStyle=0" vertex="1" parent="234"><mxGeometry width="69" height="40" as="geometry"><mxRectangle width="69" height="40" as="alternateBounds"/></mxGeometry></mxCell><mxCell id="236" value="products" style="shape=partialRectangle;html=1;whiteSpace=wrap;connectable=0;fillColor=none;top=0;left=0;bottom=0;right=0;overflow=hidden;strokeColor=#CCFF99;strokeWidth=3;fontFamily=Manrope;fontSource=https%3A%2F%2Ffonts.googleapis.com%2Fcss%3Ffamily%3DManrope;fontColor=#FFFFFF;fontStyle=0" vertex="1" parent="234"><mxGeometry x="69" width="69" height="40" as="geometry"><mxRectangle width="69" height="40" as="alternateBounds"/></mxGeometry></mxCell><mxCell id="237" value="owner" style="shape=partialRectangle;html=1;whiteSpace=wrap;connectable=0;fillColor=none;top=0;left=0;bottom=0;right=0;overflow=hidden;strokeColor=#CCFF99;strokeWidth=3;fontFamily=Manrope;fontSource=https%3A%2F%2Ffonts.googleapis.com%2Fcss%3Ffamily%3DManrope;fontColor=#FFFFFF;fontStyle=0" vertex="1" parent="234"><mxGeometry x="138" width="69" height="40" as="geometry"><mxRectangle width="69" height="40" as="alternateBounds"/></mxGeometry></mxCell><mxCell id="238" value="order_date" style="shape=partialRectangle;html=1;whiteSpace=wrap;connectable=0;fillColor=none;top=0;left=0;bottom=0;right=0;overflow=hidden;strokeColor=#CCFF99;strokeWidth=3;fontFamily=Manrope;fontSource=https%3A%2F%2Ffonts.googleapis.com%2Fcss%3Ffamily%3DManrope;fontColor=#FFFFFF;fontStyle=0" vertex="1" parent="234"><mxGeometry x="207" width="69" height="40" as="geometry"><mxRectangle width="69" height="40" as="alternateBounds"/></mxGeometry></mxCell><mxCell id="239" value="" style="shape=tableRow;horizontal=0;startSize=0;swimlaneHead=0;swimlaneBody=0;top=0;left=0;bottom=0;right=0;collapsible=0;dropTarget=0;fillColor=none;points=[[0,0.5],[1,0.5]];portConstraint=eastwest;strokeColor=#CCFF99;strokeWidth=3;fontFamily=Manrope;fontSource=https%3A%2F%2Ffonts.googleapis.com%2Fcss%3Ffamily%3DManrope;fontColor=#FFFFFF;fontStyle=0" vertex="1" parent="233"><mxGeometry y="70" width="276" height="40" as="geometry"/></mxCell><mxCell id="240" value="1" style="shape=partialRectangle;html=1;whiteSpace=wrap;connectable=0;fillColor=none;top=0;left=0;bottom=0;right=0;overflow=hidden;strokeColor=#CCFF99;strokeWidth=3;fontFamily=Manrope;fontSource=https%3A%2F%2Ffonts.googleapis.com%2Fcss%3Ffamily%3DManrope;fontColor=#FFFFFF;fontStyle=0" vertex="1" parent="239"><mxGeometry width="69" height="40" as="geometry"><mxRectangle width="69" height="40" as="alternateBounds"/></mxGeometry></mxCell><mxCell id="241" value="?" style="shape=partialRectangle;html=1;whiteSpace=wrap;connectable=0;fillColor=none;top=0;left=0;bottom=0;right=0;overflow=hidden;strokeColor=#CCFF99;strokeWidth=3;fontFamily=Manrope;fontSource=https%3A%2F%2Ffonts.googleapis.com%2Fcss%3Ffamily%3DManrope;fontColor=#FFFFFF;fontStyle=0" vertex="1" parent="239"><mxGeometry x="69" width="69" height="40" as="geometry"><mxRectangle width="69" height="40" as="alternateBounds"/></mxGeometry></mxCell><mxCell id="242" value="2" style="shape=partialRectangle;html=1;whiteSpace=wrap;connectable=0;fillColor=none;top=0;left=0;bottom=0;right=0;overflow=hidden;strokeColor=#CCFF99;strokeWidth=3;fontFamily=Manrope;fontSource=https%3A%2F%2Ffonts.googleapis.com%2Fcss%3Ffamily%3DManrope;fontColor=#FFFFFF;fontStyle=0" vertex="1" parent="239"><mxGeometry x="138" width="69" height="40" as="geometry"><mxRectangle width="69" height="40" as="alternateBounds"/></mxGeometry></mxCell><mxCell id="243" value="2023-11-26" style="shape=partialRectangle;html=1;whiteSpace=wrap;connectable=0;fillColor=none;top=0;left=0;bottom=0;right=0;overflow=hidden;strokeColor=#CCFF99;strokeWidth=3;fontFamily=Manrope;fontSource=https%3A%2F%2Ffonts.googleapis.com%2Fcss%3Ffamily%3DManrope;fontColor=#FFFFFF;fontStyle=0" vertex="1" parent="239"><mxGeometry x="207" width="69" height="40" as="geometry"><mxRectangle width="69" height="40" as="alternateBounds"/></mxGeometry></mxCell><mxCell id="244" value="" style="shape=tableRow;horizontal=0;startSize=0;swimlaneHead=0;swimlaneBody=0;top=0;left=0;bottom=0;right=0;collapsible=0;dropTarget=0;fillColor=none;points=[[0,0.5],[1,0.5]];portConstraint=eastwest;strokeColor=#CCFF99;strokeWidth=3;fontFamily=Manrope;fontSource=https%3A%2F%2Ffonts.googleapis.com%2Fcss%3Ffamily%3DManrope;fontColor=#FFFFFF;fontStyle=0" vertex="1" parent="233"><mxGeometry y="110" width="276" height="40" as="geometry"/></mxCell><mxCell id="245" value="2" style="shape=partialRectangle;html=1;whiteSpace=wrap;connectable=0;fillColor=none;top=0;left=0;bottom=0;right=0;overflow=hidden;strokeColor=#CCFF99;strokeWidth=3;fontFamily=Manrope;fontSource=https%3A%2F%2Ffonts.googleapis.com%2Fcss%3Ffamily%3DManrope;fontColor=#FFFFFF;fontStyle=0" vertex="1" parent="244"><mxGeometry width="69" height="40" as="geometry"><mxRectangle width="69" height="40" as="alternateBounds"/></mxGeometry></mxCell><mxCell id="246" value="?" style="shape=partialRectangle;html=1;whiteSpace=wrap;connectable=0;fillColor=none;top=0;left=0;bottom=0;right=0;overflow=hidden;strokeColor=#CCFF99;strokeWidth=3;fontFamily=Manrope;fontSource=https%3A%2F%2Ffonts.googleapis.com%2Fcss%3Ffamily%3DManrope;fontColor=#FFFFFF;fontStyle=0" vertex="1" parent="244"><mxGeometry x="69" width="69" height="40" as="geometry"><mxRectangle width="69" height="40" as="alternateBounds"/></mxGeometry></mxCell><mxCell id="247" value="2" style="shape=partialRectangle;html=1;whiteSpace=wrap;connectable=0;fillColor=none;top=0;left=0;bottom=0;right=0;overflow=hidden;strokeColor=#CCFF99;strokeWidth=3;fontFamily=Manrope;fontSource=https%3A%2F%2Ffonts.googleapis.com%2Fcss%3Ffamily%3DManrope;fontColor=#FFFFFF;fontStyle=0" vertex="1" parent="244"><mxGeometry x="138" width="69" height="40" as="geometry"><mxRectangle width="69" height="40" as="alternateBounds"/></mxGeometry></mxCell><mxCell id="248" value="2023-10-15" style="shape=partialRectangle;html=1;whiteSpace=wrap;connectable=0;fillColor=none;top=0;left=0;bottom=0;right=0;overflow=hidden;strokeColor=#CCFF99;strokeWidth=3;fontFamily=Manrope;fontSource=https%3A%2F%2Ffonts.googleapis.com%2Fcss%3Ffamily%3DManrope;fontColor=#FFFFFF;fontStyle=0" vertex="1" parent="244"><mxGeometry x="207" width="69" height="40" as="geometry"><mxRectangle width="69" height="40" as="alternateBounds"/></mxGeometry></mxCell><mxCell id="249" style="shape=tableRow;horizontal=0;startSize=0;swimlaneHead=0;swimlaneBody=0;top=0;left=0;bottom=0;right=0;collapsible=0;dropTarget=0;fillColor=none;points=[[0,0.5],[1,0.5]];portConstraint=eastwest;strokeColor=#CCFF99;strokeWidth=3;fontFamily=Manrope;fontSource=https%3A%2F%2Ffonts.googleapis.com%2Fcss%3Ffamily%3DManrope;fontColor=#FFFFFF;fontStyle=0" vertex="1" parent="233"><mxGeometry y="150" width="276" height="40" as="geometry"/></mxCell><mxCell id="250" value="3" style="shape=partialRectangle;html=1;whiteSpace=wrap;connectable=0;fillColor=none;top=0;left=0;bottom=0;right=0;overflow=hidden;strokeColor=#CCFF99;strokeWidth=3;fontFamily=Manrope;fontSource=https%3A%2F%2Ffonts.googleapis.com%2Fcss%3Ffamily%3DManrope;fontColor=#FFFFFF;fontStyle=0" vertex="1" parent="249"><mxGeometry width="69" height="40" as="geometry"><mxRectangle width="69" height="40" as="alternateBounds"/></mxGeometry></mxCell><mxCell id="251" value="?" style="shape=partialRectangle;html=1;whiteSpace=wrap;connectable=0;fillColor=none;top=0;left=0;bottom=0;right=0;overflow=hidden;strokeColor=#CCFF99;strokeWidth=3;fontFamily=Manrope;fontSource=https%3A%2F%2Ffonts.googleapis.com%2Fcss%3Ffamily%3DManrope;fontColor=#FFFFFF;fontStyle=0" vertex="1" parent="249"><mxGeometry x="69" width="69" height="40" as="geometry"><mxRectangle width="69" height="40" as="alternateBounds"/></mxGeometry></mxCell><mxCell id="252" value="1" style="shape=partialRectangle;html=1;whiteSpace=wrap;connectable=0;fillColor=none;top=0;left=0;bottom=0;right=0;overflow=hidden;strokeColor=#CCFF99;strokeWidth=3;fontFamily=Manrope;fontSource=https%3A%2F%2Ffonts.googleapis.com%2Fcss%3Ffamily%3DManrope;fontColor=#FFFFFF;fontStyle=0" vertex="1" parent="249"><mxGeometry x="138" width="69" height="40" as="geometry"><mxRectangle width="69" height="40" as="alternateBounds"/></mxGeometry></mxCell><mxCell id="253" value="2023-11-27" style="shape=partialRectangle;html=1;whiteSpace=wrap;connectable=0;fillColor=none;top=0;left=0;bottom=0;right=0;overflow=hidden;strokeColor=#CCFF99;strokeWidth=3;fontFamily=Manrope;fontSource=https%3A%2F%2Ffonts.googleapis.com%2Fcss%3Ffamily%3DManrope;fontColor=#FFFFFF;fontStyle=0" vertex="1" parent="249"><mxGeometry x="207" width="69" height="40" as="geometry"><mxRectangle width="69" height="40" as="alternateBounds"/></mxGeometry></mxCell><mxCell id="254" style="shape=tableRow;horizontal=0;startSize=0;swimlaneHead=0;swimlaneBody=0;top=0;left=0;bottom=0;right=0;collapsible=0;dropTarget=0;fillColor=none;points=[[0,0.5],[1,0.5]];portConstraint=eastwest;strokeColor=#CCFF99;strokeWidth=3;fontFamily=Manrope;fontSource=https%3A%2F%2Ffonts.googleapis.com%2Fcss%3Ffamily%3DManrope;fontColor=#FFFFFF;fontStyle=0" vertex="1" parent="233"><mxGeometry y="190" width="276" height="40" as="geometry"/></mxCell><mxCell id="255" value="4" style="shape=partialRectangle;html=1;whiteSpace=wrap;connectable=0;fillColor=none;top=0;left=0;bottom=0;right=0;overflow=hidden;strokeColor=#CCFF99;strokeWidth=3;fontFamily=Manrope;fontSource=https%3A%2F%2Ffonts.googleapis.com%2Fcss%3Ffamily%3DManrope;fontColor=#FFFFFF;fontStyle=0" vertex="1" parent="254"><mxGeometry width="69" height="40" as="geometry"><mxRectangle width="69" height="40" as="alternateBounds"/></mxGeometry></mxCell><mxCell id="256" value="?" style="shape=partialRectangle;html=1;whiteSpace=wrap;connectable=0;fillColor=none;top=0;left=0;bottom=0;right=0;overflow=hidden;strokeColor=#CCFF99;strokeWidth=3;fontFamily=Manrope;fontSource=https%3A%2F%2Ffonts.googleapis.com%2Fcss%3Ffamily%3DManrope;fontColor=#FFFFFF;fontStyle=0" vertex="1" parent="254"><mxGeometry x="69" width="69" height="40" as="geometry"><mxRectangle width="69" height="40" as="alternateBounds"/></mxGeometry></mxCell><mxCell id="257" value="2" style="shape=partialRectangle;html=1;whiteSpace=wrap;connectable=0;fillColor=none;top=0;left=0;bottom=0;right=0;overflow=hidden;strokeColor=#CCFF99;strokeWidth=3;fontFamily=Manrope;fontSource=https%3A%2F%2Ffonts.googleapis.com%2Fcss%3Ffamily%3DManrope;fontColor=#FFFFFF;fontStyle=0" vertex="1" parent="254"><mxGeometry x="138" width="69" height="40" as="geometry"><mxRectangle width="69" height="40" as="alternateBounds"/></mxGeometry></mxCell><mxCell id="258" value="2023-11-07" style="shape=partialRectangle;html=1;whiteSpace=wrap;connectable=0;fillColor=none;top=0;left=0;bottom=0;right=0;overflow=hidden;strokeColor=#CCFF99;strokeWidth=3;fontFamily=Manrope;fontSource=https%3A%2F%2Ffonts.googleapis.com%2Fcss%3Ffamily%3DManrope;fontColor=#FFFFFF;fontStyle=0" vertex="1" parent="254"><mxGeometry x="207" width="69" height="40" as="geometry"><mxRectangle width="69" height="40" as="alternateBounds"/></mxGeometry></mxCell><mxCell id="259" style="shape=tableRow;horizontal=0;startSize=0;swimlaneHead=0;swimlaneBody=0;top=0;left=0;bottom=0;right=0;collapsible=0;dropTarget=0;fillColor=none;points=[[0,0.5],[1,0.5]];portConstraint=eastwest;strokeColor=#CCFF99;strokeWidth=3;fontFamily=Manrope;fontSource=https%3A%2F%2Ffonts.googleapis.com%2Fcss%3Ffamily%3DManrope;fontColor=#FFFFFF;fontStyle=0" vertex="1" parent="233"><mxGeometry y="230" width="276" height="40" as="geometry"/></mxCell><mxCell id="260" value="..." style="shape=partialRectangle;html=1;whiteSpace=wrap;connectable=0;fillColor=none;top=0;left=0;bottom=0;right=0;overflow=hidden;strokeColor=#CCFF99;strokeWidth=3;fontFamily=Manrope;fontSource=https%3A%2F%2Ffonts.googleapis.com%2Fcss%3Ffamily%3DManrope;fontColor=#FFFFFF;fontStyle=0" vertex="1" parent="259"><mxGeometry width="69" height="40" as="geometry"><mxRectangle width="69" height="40" as="alternateBounds"/></mxGeometry></mxCell><mxCell id="261" value="..." style="shape=partialRectangle;html=1;whiteSpace=wrap;connectable=0;fillColor=none;top=0;left=0;bottom=0;right=0;overflow=hidden;strokeColor=#CCFF99;strokeWidth=3;fontFamily=Manrope;fontSource=https%3A%2F%2Ffonts.googleapis.com%2Fcss%3Ffamily%3DManrope;fontColor=#FFFFFF;fontStyle=0" vertex="1" parent="259"><mxGeometry x="69" width="69" height="40" as="geometry"><mxRectangle width="69" height="40" as="alternateBounds"/></mxGeometry></mxCell><mxCell id="262" value="..." style="shape=partialRectangle;html=1;whiteSpace=wrap;connectable=0;fillColor=none;top=0;left=0;bottom=0;right=0;overflow=hidden;strokeColor=#CCFF99;strokeWidth=3;fontFamily=Manrope;fontSource=https%3A%2F%2Ffonts.googleapis.com%2Fcss%3Ffamily%3DManrope;fontColor=#FFFFFF;fontStyle=0" vertex="1" parent="259"><mxGeometry x="138" width="69" height="40" as="geometry"><mxRectangle width="69" height="40" as="alternateBounds"/></mxGeometry></mxCell><mxCell id="263" value="..." style="shape=partialRectangle;html=1;whiteSpace=wrap;connectable=0;fillColor=none;top=0;left=0;bottom=0;right=0;overflow=hidden;strokeColor=#CCFF99;strokeWidth=3;fontFamily=Manrope;fontSource=https%3A%2F%2Ffonts.googleapis.com%2Fcss%3Ffamily%3DManrope;fontColor=#FFFFFF;fontStyle=0" vertex="1" parent="259"><mxGeometry x="207" width="69" height="40" as="geometry"><mxRectangle width="69" height="40" as="alternateBounds"/></mxGeometry></mxCell><mxCell id="264" value="ProductTable" style="shape=table;startSize=30;container=1;collapsible=0;childLayout=tableLayout;fontStyle=1;align=center;strokeColor=#FFFFFF;strokeWidth=1;fontFamily=Manrope;fontSource=https%3A%2F%2Ffonts.googleapis.com%2Fcss%3Ffamily%3DManrope;fontColor=#FFFFFF;fillColor=none;" vertex="1" parent="1"><mxGeometry x="549" y="2671" width="215" height="230" as="geometry"/></mxCell><mxCell id="265" value="" style="shape=tableRow;horizontal=0;startSize=0;swimlaneHead=0;swimlaneBody=0;top=0;left=0;bottom=0;right=0;collapsible=0;dropTarget=0;fillColor=none;points=[[0,0.5],[1,0.5]];portConstraint=eastwest;strokeColor=#FFFFFF;strokeWidth=1;fontFamily=Manrope;fontSource=https%3A%2F%2Ffonts.googleapis.com%2Fcss%3Ffamily%3DManrope;fontColor=#FFFFFF;" vertex="1" parent="264"><mxGeometry y="30" width="215" height="40" as="geometry"/></mxCell><mxCell id="266" value="id" style="shape=partialRectangle;html=1;whiteSpace=wrap;connectable=0;fillColor=none;top=0;left=0;bottom=0;right=0;overflow=hidden;strokeColor=#FFFFFF;strokeWidth=1;fontFamily=Manrope;fontSource=https%3A%2F%2Ffonts.googleapis.com%2Fcss%3Ffamily%3DManrope;fontColor=#FFFFFF;" vertex="1" parent="265"><mxGeometry width="72" height="40" as="geometry"><mxRectangle width="72" height="40" as="alternateBounds"/></mxGeometry></mxCell><mxCell id="267" value="name" style="shape=partialRectangle;html=1;whiteSpace=wrap;connectable=0;fillColor=none;top=0;left=0;bottom=0;right=0;overflow=hidden;strokeColor=#FFFFFF;strokeWidth=1;fontFamily=Manrope;fontSource=https%3A%2F%2Ffonts.googleapis.com%2Fcss%3Ffamily%3DManrope;fontColor=#FFFFFF;" vertex="1" parent="265"><mxGeometry x="72" width="71" height="40" as="geometry"><mxRectangle width="71" height="40" as="alternateBounds"/></mxGeometry></mxCell><mxCell id="268" value="price" style="shape=partialRectangle;html=1;whiteSpace=wrap;connectable=0;fillColor=none;top=0;left=0;bottom=0;right=0;overflow=hidden;strokeColor=#FFFFFF;strokeWidth=1;fontFamily=Manrope;fontSource=https%3A%2F%2Ffonts.googleapis.com%2Fcss%3Ffamily%3DManrope;fontColor=#FFFFFF;" vertex="1" parent="265"><mxGeometry x="143" width="72" height="40" as="geometry"><mxRectangle width="72" height="40" as="alternateBounds"/></mxGeometry></mxCell><mxCell id="269" value="" style="shape=tableRow;horizontal=0;startSize=0;swimlaneHead=0;swimlaneBody=0;top=0;left=0;bottom=0;right=0;collapsible=0;dropTarget=0;fillColor=none;points=[[0,0.5],[1,0.5]];portConstraint=eastwest;strokeColor=#FFFFFF;strokeWidth=1;fontFamily=Manrope;fontSource=https%3A%2F%2Ffonts.googleapis.com%2Fcss%3Ffamily%3DManrope;fontColor=#FFFFFF;" vertex="1" parent="264"><mxGeometry y="70" width="215" height="40" as="geometry"/></mxCell><mxCell id="270" value="1" style="shape=partialRectangle;html=1;whiteSpace=wrap;connectable=0;fillColor=none;top=0;left=0;bottom=0;right=0;overflow=hidden;strokeColor=#FFFFFF;strokeWidth=1;fontFamily=Manrope;fontSource=https%3A%2F%2Ffonts.googleapis.com%2Fcss%3Ffamily%3DManrope;fontColor=#FFFFFF;" vertex="1" parent="269"><mxGeometry width="72" height="40" as="geometry"><mxRectangle width="72" height="40" as="alternateBounds"/></mxGeometry></mxCell><mxCell id="271" value="iPhone" style="shape=partialRectangle;html=1;whiteSpace=wrap;connectable=0;fillColor=none;top=0;left=0;bottom=0;right=0;overflow=hidden;strokeColor=#FFFFFF;strokeWidth=1;fontFamily=Manrope;fontSource=https%3A%2F%2Ffonts.googleapis.com%2Fcss%3Ffamily%3DManrope;fontColor=#FFFFFF;" vertex="1" parent="269"><mxGeometry x="72" width="71" height="40" as="geometry"><mxRectangle width="71" height="40" as="alternateBounds"/></mxGeometry></mxCell><mxCell id="272" value="1650" style="shape=partialRectangle;html=1;whiteSpace=wrap;connectable=0;fillColor=none;top=0;left=0;bottom=0;right=0;overflow=hidden;strokeColor=#FFFFFF;strokeWidth=1;fontFamily=Manrope;fontSource=https%3A%2F%2Ffonts.googleapis.com%2Fcss%3Ffamily%3DManrope;fontColor=#FFFFFF;" vertex="1" parent="269"><mxGeometry x="143" width="72" height="40" as="geometry"><mxRectangle width="72" height="40" as="alternateBounds"/></mxGeometry></mxCell><mxCell id="273" value="" style="shape=tableRow;horizontal=0;startSize=0;swimlaneHead=0;swimlaneBody=0;top=0;left=0;bottom=0;right=0;collapsible=0;dropTarget=0;fillColor=none;points=[[0,0.5],[1,0.5]];portConstraint=eastwest;strokeColor=#FFFFFF;strokeWidth=1;fontFamily=Manrope;fontSource=https%3A%2F%2Ffonts.googleapis.com%2Fcss%3Ffamily%3DManrope;fontColor=#FFFFFF;" vertex="1" parent="264"><mxGeometry y="110" width="215" height="40" as="geometry"/></mxCell><mxCell id="274" value="2" style="shape=partialRectangle;html=1;whiteSpace=wrap;connectable=0;fillColor=none;top=0;left=0;bottom=0;right=0;overflow=hidden;strokeColor=#FFFFFF;strokeWidth=1;fontFamily=Manrope;fontSource=https%3A%2F%2Ffonts.googleapis.com%2Fcss%3Ffamily%3DManrope;fontColor=#FFFFFF;" vertex="1" parent="273"><mxGeometry width="72" height="40" as="geometry"><mxRectangle width="72" height="40" as="alternateBounds"/></mxGeometry></mxCell><mxCell id="275" value="MacBook" style="shape=partialRectangle;html=1;whiteSpace=wrap;connectable=0;fillColor=none;top=0;left=0;bottom=0;right=0;overflow=hidden;strokeColor=#FFFFFF;strokeWidth=1;fontFamily=Manrope;fontSource=https%3A%2F%2Ffonts.googleapis.com%2Fcss%3Ffamily%3DManrope;fontColor=#FFFFFF;" vertex="1" parent="273"><mxGeometry x="72" width="71" height="40" as="geometry"><mxRectangle width="71" height="40" as="alternateBounds"/></mxGeometry></mxCell><mxCell id="276" value="3099" style="shape=partialRectangle;html=1;whiteSpace=wrap;connectable=0;fillColor=none;top=0;left=0;bottom=0;right=0;overflow=hidden;strokeColor=#FFFFFF;strokeWidth=1;fontFamily=Manrope;fontSource=https%3A%2F%2Ffonts.googleapis.com%2Fcss%3Ffamily%3DManrope;fontColor=#FFFFFF;" vertex="1" parent="273"><mxGeometry x="143" width="72" height="40" as="geometry"><mxRectangle width="72" height="40" as="alternateBounds"/></mxGeometry></mxCell><mxCell id="277" style="shape=tableRow;horizontal=0;startSize=0;swimlaneHead=0;swimlaneBody=0;top=0;left=0;bottom=0;right=0;collapsible=0;dropTarget=0;fillColor=none;points=[[0,0.5],[1,0.5]];portConstraint=eastwest;strokeColor=#FFFFFF;strokeWidth=1;fontFamily=Manrope;fontSource=https%3A%2F%2Ffonts.googleapis.com%2Fcss%3Ffamily%3DManrope;fontColor=#FFFFFF;" vertex="1" parent="264"><mxGeometry y="150" width="215" height="40" as="geometry"/></mxCell><mxCell id="278" value="3" style="shape=partialRectangle;html=1;whiteSpace=wrap;connectable=0;fillColor=none;top=0;left=0;bottom=0;right=0;overflow=hidden;strokeColor=#FFFFFF;strokeWidth=1;fontFamily=Manrope;fontSource=https%3A%2F%2Ffonts.googleapis.com%2Fcss%3Ffamily%3DManrope;fontColor=#FFFFFF;" vertex="1" parent="277"><mxGeometry width="72" height="40" as="geometry"><mxRectangle width="72" height="40" as="alternateBounds"/></mxGeometry></mxCell><mxCell id="279" value="MagicMouse" style="shape=partialRectangle;html=1;whiteSpace=wrap;connectable=0;fillColor=none;top=0;left=0;bottom=0;right=0;overflow=hidden;strokeColor=#FFFFFF;strokeWidth=1;fontFamily=Manrope;fontSource=https%3A%2F%2Ffonts.googleapis.com%2Fcss%3Ffamily%3DManrope;fontColor=#FFFFFF;" vertex="1" parent="277"><mxGeometry x="72" width="71" height="40" as="geometry"><mxRectangle width="71" height="40" as="alternateBounds"/></mxGeometry></mxCell><mxCell id="280" value="98" style="shape=partialRectangle;html=1;whiteSpace=wrap;connectable=0;fillColor=none;top=0;left=0;bottom=0;right=0;overflow=hidden;strokeColor=#FFFFFF;strokeWidth=1;fontFamily=Manrope;fontSource=https%3A%2F%2Ffonts.googleapis.com%2Fcss%3Ffamily%3DManrope;fontColor=#FFFFFF;" vertex="1" parent="277"><mxGeometry x="143" width="72" height="40" as="geometry"><mxRectangle width="72" height="40" as="alternateBounds"/></mxGeometry></mxCell><mxCell id="281" style="shape=tableRow;horizontal=0;startSize=0;swimlaneHead=0;swimlaneBody=0;top=0;left=0;bottom=0;right=0;collapsible=0;dropTarget=0;fillColor=none;points=[[0,0.5],[1,0.5]];portConstraint=eastwest;strokeColor=#FFFFFF;strokeWidth=1;fontFamily=Manrope;fontSource=https%3A%2F%2Ffonts.googleapis.com%2Fcss%3Ffamily%3DManrope;fontColor=#FFFFFF;" vertex="1" parent="264"><mxGeometry y="190" width="215" height="40" as="geometry"/></mxCell><mxCell id="282" value="..." style="shape=partialRectangle;html=1;whiteSpace=wrap;connectable=0;fillColor=none;top=0;left=0;bottom=0;right=0;overflow=hidden;strokeColor=#FFFFFF;strokeWidth=1;fontFamily=Manrope;fontSource=https%3A%2F%2Ffonts.googleapis.com%2Fcss%3Ffamily%3DManrope;fontColor=#FFFFFF;" vertex="1" parent="281"><mxGeometry width="72" height="40" as="geometry"><mxRectangle width="72" height="40" as="alternateBounds"/></mxGeometry></mxCell><mxCell id="283" value="..." style="shape=partialRectangle;html=1;whiteSpace=wrap;connectable=0;fillColor=none;top=0;left=0;bottom=0;right=0;overflow=hidden;strokeColor=#FFFFFF;strokeWidth=1;fontFamily=Manrope;fontSource=https%3A%2F%2Ffonts.googleapis.com%2Fcss%3Ffamily%3DManrope;fontColor=#FFFFFF;" vertex="1" parent="281"><mxGeometry x="72" width="71" height="40" as="geometry"><mxRectangle width="71" height="40" as="alternateBounds"/></mxGeometry></mxCell><mxCell id="284" value="..." style="shape=partialRectangle;html=1;whiteSpace=wrap;connectable=0;fillColor=none;top=0;left=0;bottom=0;right=0;overflow=hidden;strokeColor=#FFFFFF;strokeWidth=1;fontFamily=Manrope;fontSource=https%3A%2F%2Ffonts.googleapis.com%2Fcss%3Ffamily%3DManrope;fontColor=#FFFFFF;" vertex="1" parent="281"><mxGeometry x="143" width="72" height="40" as="geometry"><mxRectangle width="72" height="40" as="alternateBounds"/></mxGeometry></mxCell><mxCell id="285" value="OrderProductTable" style="shape=table;startSize=30;container=1;collapsible=0;childLayout=tableLayout;fontStyle=1;align=center;strokeColor=#FFFFFF;strokeWidth=1;fontFamily=Manrope;fontSource=https%3A%2F%2Ffonts.googleapis.com%2Fcss%3Ffamily%3DManrope;fontColor=#FFFFFF;fillColor=none;" vertex="1" parent="1"><mxGeometry x="181" y="3017" width="245" height="230" as="geometry"/></mxCell><mxCell id="286" value="" style="shape=tableRow;horizontal=0;startSize=0;swimlaneHead=0;swimlaneBody=0;top=0;left=0;bottom=0;right=0;collapsible=0;dropTarget=0;fillColor=none;points=[[0,0.5],[1,0.5]];portConstraint=eastwest;strokeColor=#FFFFFF;strokeWidth=1;fontFamily=Manrope;fontSource=https%3A%2F%2Ffonts.googleapis.com%2Fcss%3Ffamily%3DManrope;fontColor=#FFFFFF;" vertex="1" parent="285"><mxGeometry y="30" width="245" height="40" as="geometry"/></mxCell><mxCell id="287" value="id" style="shape=partialRectangle;html=1;whiteSpace=wrap;connectable=0;fillColor=none;top=0;left=0;bottom=0;right=0;overflow=hidden;strokeColor=#FFFFFF;strokeWidth=1;fontFamily=Manrope;fontSource=https%3A%2F%2Ffonts.googleapis.com%2Fcss%3Ffamily%3DManrope;fontColor=#FFFFFF;" vertex="1" parent="286"><mxGeometry width="82" height="40" as="geometry"><mxRectangle width="82" height="40" as="alternateBounds"/></mxGeometry></mxCell><mxCell id="288" value="order_id" style="shape=partialRectangle;html=1;whiteSpace=wrap;connectable=0;fillColor=none;top=0;left=0;bottom=0;right=0;overflow=hidden;strokeColor=#FFFFFF;strokeWidth=1;fontFamily=Manrope;fontSource=https%3A%2F%2Ffonts.googleapis.com%2Fcss%3Ffamily%3DManrope;fontColor=#FFFFFF;" vertex="1" parent="286"><mxGeometry x="82" width="81" height="40" as="geometry"><mxRectangle width="81" height="40" as="alternateBounds"/></mxGeometry></mxCell><mxCell id="289" value="product_id" style="shape=partialRectangle;html=1;whiteSpace=wrap;connectable=0;fillColor=none;top=0;left=0;bottom=0;right=0;overflow=hidden;strokeColor=#FFFFFF;strokeWidth=1;fontFamily=Manrope;fontSource=https%3A%2F%2Ffonts.googleapis.com%2Fcss%3Ffamily%3DManrope;fontColor=#FFFFFF;" vertex="1" parent="286"><mxGeometry x="163" width="82" height="40" as="geometry"><mxRectangle width="82" height="40" as="alternateBounds"/></mxGeometry></mxCell><mxCell id="290" value="" style="shape=tableRow;horizontal=0;startSize=0;swimlaneHead=0;swimlaneBody=0;top=0;left=0;bottom=0;right=0;collapsible=0;dropTarget=0;fillColor=none;points=[[0,0.5],[1,0.5]];portConstraint=eastwest;strokeColor=#FFFFFF;strokeWidth=1;fontFamily=Manrope;fontSource=https%3A%2F%2Ffonts.googleapis.com%2Fcss%3Ffamily%3DManrope;fontColor=#FFFFFF;" vertex="1" parent="285"><mxGeometry y="70" width="245" height="40" as="geometry"/></mxCell><mxCell id="291" value="1" style="shape=partialRectangle;html=1;whiteSpace=wrap;connectable=0;fillColor=none;top=0;left=0;bottom=0;right=0;overflow=hidden;strokeColor=#FFFFFF;strokeWidth=1;fontFamily=Manrope;fontSource=https%3A%2F%2Ffonts.googleapis.com%2Fcss%3Ffamily%3DManrope;fontColor=#FFFFFF;" vertex="1" parent="290"><mxGeometry width="82" height="40" as="geometry"><mxRectangle width="82" height="40" as="alternateBounds"/></mxGeometry></mxCell><mxCell id="292" value="2" style="shape=partialRectangle;html=1;whiteSpace=wrap;connectable=0;fillColor=none;top=0;left=0;bottom=0;right=0;overflow=hidden;strokeColor=#FFFFFF;strokeWidth=1;fontFamily=Manrope;fontSource=https%3A%2F%2Ffonts.googleapis.com%2Fcss%3Ffamily%3DManrope;fontColor=#FFFFFF;" vertex="1" parent="290"><mxGeometry x="82" width="81" height="40" as="geometry"><mxRectangle width="81" height="40" as="alternateBounds"/></mxGeometry></mxCell><mxCell id="293" value="3" style="shape=partialRectangle;html=1;whiteSpace=wrap;connectable=0;fillColor=none;top=0;left=0;bottom=0;right=0;overflow=hidden;strokeColor=#FFFFFF;strokeWidth=1;fontFamily=Manrope;fontSource=https%3A%2F%2Ffonts.googleapis.com%2Fcss%3Ffamily%3DManrope;fontColor=#FFFFFF;" vertex="1" parent="290"><mxGeometry x="163" width="82" height="40" as="geometry"><mxRectangle width="82" height="40" as="alternateBounds"/></mxGeometry></mxCell><mxCell id="294" value="" style="shape=tableRow;horizontal=0;startSize=0;swimlaneHead=0;swimlaneBody=0;top=0;left=0;bottom=0;right=0;collapsible=0;dropTarget=0;fillColor=none;points=[[0,0.5],[1,0.5]];portConstraint=eastwest;strokeColor=#FFFFFF;strokeWidth=1;fontFamily=Manrope;fontSource=https%3A%2F%2Ffonts.googleapis.com%2Fcss%3Ffamily%3DManrope;fontColor=#FFFFFF;" vertex="1" parent="285"><mxGeometry y="110" width="245" height="40" as="geometry"/></mxCell><mxCell id="295" value="2" style="shape=partialRectangle;html=1;whiteSpace=wrap;connectable=0;fillColor=none;top=0;left=0;bottom=0;right=0;overflow=hidden;strokeColor=#FFFFFF;strokeWidth=1;fontFamily=Manrope;fontSource=https%3A%2F%2Ffonts.googleapis.com%2Fcss%3Ffamily%3DManrope;fontColor=#FFFFFF;" vertex="1" parent="294"><mxGeometry width="82" height="40" as="geometry"><mxRectangle width="82" height="40" as="alternateBounds"/></mxGeometry></mxCell><mxCell id="296" value="2" style="shape=partialRectangle;html=1;whiteSpace=wrap;connectable=0;fillColor=none;top=0;left=0;bottom=0;right=0;overflow=hidden;strokeColor=#FFFFFF;strokeWidth=1;fontFamily=Manrope;fontSource=https%3A%2F%2Ffonts.googleapis.com%2Fcss%3Ffamily%3DManrope;fontColor=#FFFFFF;" vertex="1" parent="294"><mxGeometry x="82" width="81" height="40" as="geometry"><mxRectangle width="81" height="40" as="alternateBounds"/></mxGeometry></mxCell><mxCell id="297" value="2" style="shape=partialRectangle;html=1;whiteSpace=wrap;connectable=0;fillColor=none;top=0;left=0;bottom=0;right=0;overflow=hidden;strokeColor=#FFFFFF;strokeWidth=1;fontFamily=Manrope;fontSource=https%3A%2F%2Ffonts.googleapis.com%2Fcss%3Ffamily%3DManrope;fontColor=#FFFFFF;" vertex="1" parent="294"><mxGeometry x="163" width="82" height="40" as="geometry"><mxRectangle width="82" height="40" as="alternateBounds"/></mxGeometry></mxCell><mxCell id="299" style="shape=tableRow;horizontal=0;startSize=0;swimlaneHead=0;swimlaneBody=0;top=0;left=0;bottom=0;right=0;collapsible=0;dropTarget=0;fillColor=none;points=[[0,0.5],[1,0.5]];portConstraint=eastwest;strokeColor=#FFFFFF;strokeWidth=1;fontFamily=Manrope;fontSource=https%3A%2F%2Ffonts.googleapis.com%2Fcss%3Ffamily%3DManrope;fontColor=#FFFFFF;" vertex="1" parent="285"><mxGeometry y="150" width="245" height="40" as="geometry"/></mxCell><mxCell id="300" value="1" style="shape=partialRectangle;html=1;whiteSpace=wrap;connectable=0;fillColor=none;top=0;left=0;bottom=0;right=0;overflow=hidden;strokeColor=#FFFFFF;strokeWidth=1;fontFamily=Manrope;fontSource=https%3A%2F%2Ffonts.googleapis.com%2Fcss%3Ffamily%3DManrope;fontColor=#FFFFFF;" vertex="1" parent="299"><mxGeometry width="82" height="40" as="geometry"><mxRectangle width="82" height="40" as="alternateBounds"/></mxGeometry></mxCell><mxCell id="301" value="4" style="shape=partialRectangle;html=1;whiteSpace=wrap;connectable=0;fillColor=none;top=0;left=0;bottom=0;right=0;overflow=hidden;strokeColor=#FFFFFF;strokeWidth=1;fontFamily=Manrope;fontSource=https%3A%2F%2Ffonts.googleapis.com%2Fcss%3Ffamily%3DManrope;fontColor=#FFFFFF;" vertex="1" parent="299"><mxGeometry x="82" width="81" height="40" as="geometry"><mxRectangle width="81" height="40" as="alternateBounds"/></mxGeometry></mxCell><mxCell id="302" value="1" style="shape=partialRectangle;html=1;whiteSpace=wrap;connectable=0;fillColor=none;top=0;left=0;bottom=0;right=0;overflow=hidden;strokeColor=#FFFFFF;strokeWidth=1;fontFamily=Manrope;fontSource=https%3A%2F%2Ffonts.googleapis.com%2Fcss%3Ffamily%3DManrope;fontColor=#FFFFFF;" vertex="1" parent="299"><mxGeometry x="163" width="82" height="40" as="geometry"><mxRectangle width="82" height="40" as="alternateBounds"/></mxGeometry></mxCell><mxCell id="303" style="shape=tableRow;horizontal=0;startSize=0;swimlaneHead=0;swimlaneBody=0;top=0;left=0;bottom=0;right=0;collapsible=0;dropTarget=0;fillColor=none;points=[[0,0.5],[1,0.5]];portConstraint=eastwest;strokeColor=#FFFFFF;strokeWidth=1;fontFamily=Manrope;fontSource=https%3A%2F%2Ffonts.googleapis.com%2Fcss%3Ffamily%3DManrope;fontColor=#FFFFFF;" vertex="1" parent="285"><mxGeometry y="190" width="245" height="40" as="geometry"/></mxCell><mxCell id="304" value="..." style="shape=partialRectangle;html=1;whiteSpace=wrap;connectable=0;fillColor=none;top=0;left=0;bottom=0;right=0;overflow=hidden;strokeColor=#FFFFFF;strokeWidth=1;fontFamily=Manrope;fontSource=https%3A%2F%2Ffonts.googleapis.com%2Fcss%3Ffamily%3DManrope;fontColor=#FFFFFF;" vertex="1" parent="303"><mxGeometry width="82" height="40" as="geometry"><mxRectangle width="82" height="40" as="alternateBounds"/></mxGeometry></mxCell><mxCell id="305" value="..." style="shape=partialRectangle;html=1;whiteSpace=wrap;connectable=0;fillColor=none;top=0;left=0;bottom=0;right=0;overflow=hidden;strokeColor=#FFFFFF;strokeWidth=1;fontFamily=Manrope;fontSource=https%3A%2F%2Ffonts.googleapis.com%2Fcss%3Ffamily%3DManrope;fontColor=#FFFFFF;" vertex="1" parent="303"><mxGeometry x="82" width="81" height="40" as="geometry"><mxRectangle width="81" height="40" as="alternateBounds"/></mxGeometry></mxCell><mxCell id="306" value="..." style="shape=partialRectangle;html=1;whiteSpace=wrap;connectable=0;fillColor=none;top=0;left=0;bottom=0;right=0;overflow=hidden;strokeColor=#FFFFFF;strokeWidth=1;fontFamily=Manrope;fontSource=https%3A%2F%2Ffonts.googleapis.com%2Fcss%3Ffamily%3DManrope;fontColor=#FFFFFF;" vertex="1" parent="303"><mxGeometry x="163" width="82" height="40" as="geometry"><mxRectangle width="82" height="40" as="alternateBounds"/></mxGeometry></mxCell><mxCell id="298" value="" style="rounded=0;whiteSpace=wrap;html=1;strokeColor=#CCFF99;strokeWidth=3;fillColor=none;dashed=1;" vertex="1" parent="1"><mxGeometry x="541.5" y="2696" width="83" height="209" as="geometry"/></mxCell><mxCell id="307" value="" style="rounded=0;whiteSpace=wrap;html=1;strokeColor=#CCFF99;strokeWidth=3;fillColor=none;dashed=1;" vertex="1" parent="1"><mxGeometry x="260" y="3043" width="83" height="209" as="geometry"/></mxCell><mxCell id="308" value="" style="rounded=0;whiteSpace=wrap;html=1;strokeColor=#CCFF99;strokeWidth=3;fillColor=none;dashed=1;" vertex="1" parent="1"><mxGeometry x="350" y="3043" width="83" height="209" as="geometry"/></mxCell><mxCell id="309" value="" style="curved=1;endArrow=classic;html=1;rounded=0;dashed=1;strokeColor=#FFFF66;strokeWidth=3;fontFamily=Manrope;fontSource=https%3A%2F%2Ffonts.googleapis.com%2Fcss%3Ffamily%3DManrope;fontColor=#FFFFFF;elbow=vertical;exitX=0.5;exitY=1;exitDx=0;exitDy=0;entryX=0.5;entryY=0;entryDx=0;entryDy=0;" edge="1" parent="1" source="298" target="308"><mxGeometry width="50" height="50" relative="1" as="geometry"><mxPoint x="581" y="3042" as="sourcePoint"/><mxPoint x="631" y="2992" as="targetPoint"/><Array as="points"><mxPoint x="463" y="2939"/><mxPoint x="581" y="2992"/></Array></mxGeometry></mxCell><mxCell id="310" value="" style="curved=1;endArrow=classic;html=1;rounded=0;dashed=1;strokeColor=#FFFF66;strokeWidth=3;fontFamily=Manrope;fontSource=https%3A%2F%2Ffonts.googleapis.com%2Fcss%3Ffamily%3DManrope;fontColor=#FFFFFF;elbow=vertical;entryX=0.5;entryY=0;entryDx=0;entryDy=0;exitX=0.5;exitY=1;exitDx=0;exitDy=0;" edge="1" parent="1" source="232" target="307"><mxGeometry width="50" height="50" relative="1" as="geometry"><mxPoint x="85" y="3043" as="sourcePoint"/><mxPoint x="135" y="2993" as="targetPoint"/><Array as="points"><mxPoint x="367" y="2957"/><mxPoint x="85" y="2993"/></Array></mxGeometry></mxCell><mxCell id="311" value="query !" style="rounded=1;whiteSpace=wrap;html=1;strokeColor=#FFFF99;strokeWidth=1;fontFamily=Manrope;fontSource=https%3A%2F%2Ffonts.googleapis.com%2Fcss%3Ffamily%3DManrope;fontColor=#1A1A1A;fillColor=#FF3333;fontSize=25;" vertex="1" parent="1"><mxGeometry x="329" y="2704" width="165" height="92" as="geometry"/></mxCell><mxCell id="313" value="" style="rounded=1;whiteSpace=wrap;html=1;strokeColor=#FF3333;strokeWidth=4;fontFamily=Manrope;fontSource=https%3A%2F%2Ffonts.googleapis.com%2Fcss%3Ffamily%3DManrope;fontSize=25;fontColor=#1A1A1A;fillColor=none;dashed=1;dashPattern=1 1;" vertex="1" parent="1"><mxGeometry x="81" y="2696" width="75" height="289" as="geometry"/></mxCell><mxCell id="314" value="" style="curved=1;endArrow=classic;html=1;rounded=0;dashed=1;strokeColor=#FF3333;strokeWidth=3;fontFamily=Manrope;fontSource=https%3A%2F%2Ffonts.googleapis.com%2Fcss%3Ffamily%3DManrope;fontSize=25;fontColor=#1A1A1A;elbow=vertical;exitX=0.5;exitY=0;exitDx=0;exitDy=0;entryX=0.5;entryY=0;entryDx=0;entryDy=0;" edge="1" parent="1" source="313" target="311"><mxGeometry width="50" height="50" relative="1" as="geometry"><mxPoint x="196" y="2681" as="sourcePoint"/><mxPoint x="246" y="2631" as="targetPoint"/><Array as="points"><mxPoint x="246" y="2681"/><mxPoint x="151" y="2645"/><mxPoint x="196" y="2631"/></Array></mxGeometry></mxCell></root></mxGraphModel></diagram></mxfile>